<?xml version="1.0" encoding="UTF-8" standalone="no"?>
<!DOCTYPE svg PUBLIC "-//W3C//DTD SVG 1.1//EN" "http://www.w3.org/Graphics/SVG/1.1/DTD/svg11.dtd">
<svg width="100%" height="100%" viewBox="0 0 1200 1200" version="1.1" xmlns="http://www.w3.org/2000/svg" xmlns:xlink="http://www.w3.org/1999/xlink" xml:space="preserve" xmlns:serif="http://www.serif.com/" style="fill-rule:evenodd;clip-rule:evenodd;stroke-linejoin:round;stroke-miterlimit:2;">
    <g transform="matrix(1,0,0,1,131,0)">
        <path d="M431.25,637.5L506.25,637.5C512.949,637.5 519.137,633.926 522.488,628.125C525.836,622.324 525.836,615.176 522.488,609.375C519.136,603.574 512.949,600 506.25,600L431.25,600C424.551,600 418.363,603.574 415.012,609.375C411.664,615.176 411.664,622.324 415.012,628.125C418.364,633.926 424.551,637.5 431.25,637.5Z" style="fill-rule:nonzero;"/>
    </g>
    <g transform="matrix(1,0,0,1,131,0)">
        <path d="M896.39,897.98C869.777,862.23 832.23,836.136 789.44,823.66L638.92,779.41C633.108,777.672 628.01,774.113 624.377,769.254C620.74,764.399 618.768,758.5 618.74,752.434L618.74,723.911C639.107,709.743 657.377,692.77 672.998,673.497C685.49,658.005 696.162,641.126 704.803,623.2C751.272,645.083 805.703,641.673 849.073,614.161C892.448,586.649 918.729,538.86 918.737,487.501C918.604,457.587 909.593,428.388 892.842,403.603C876.092,378.818 852.362,359.564 824.658,348.283C822.631,324.892 811.916,303.111 794.623,287.232C777.33,271.353 754.713,262.529 731.236,262.502C731.236,192.881 703.58,126.112 654.353,76.882C605.123,27.655 538.353,-0.001 468.733,-0.001C399.113,-0.001 332.343,27.655 283.113,76.882C233.886,126.112 206.23,192.882 206.23,262.502C182.753,262.529 160.136,271.354 142.843,287.232C125.55,303.111 114.835,324.892 112.808,348.283C69.363,365.744 36.558,402.486 24.117,447.627C11.679,492.768 21.031,541.131 49.398,578.377C77.769,615.627 121.906,637.494 168.728,637.498C190.767,637.529 212.537,632.678 232.478,623.295C252.197,663.666 281.88,698.346 318.728,724.055L318.728,752.438C318.701,758.504 316.728,764.403 313.092,769.258C309.459,774.117 304.361,777.676 298.549,779.414L148.029,823.664C105.291,836.238 67.775,862.309 41.089,897.98C14.401,933.648 -0.02,977 -0.024,1021.55L-0.024,1181.25C-0.024,1186.22 1.952,1190.99 5.468,1194.51C8.983,1198.02 13.753,1200 18.726,1200L918.726,1200C923.699,1200 928.468,1198.02 931.984,1194.51C935.499,1190.99 937.476,1186.22 937.476,1181.25L937.476,1021.55C937.581,976.988 923.148,933.605 896.367,897.99L896.39,897.98ZM731.25,412.5L740.625,412.5C748.082,412.508 755.23,415.473 760.504,420.746C765.777,426.02 768.742,433.168 768.75,440.625L768.75,459.375C768.742,466.832 765.777,473.98 760.504,479.254C755.231,484.528 748.082,487.492 740.625,487.5L731.25,487.5L731.25,412.5ZM730.664,525L740.625,525C758.023,524.98 774.703,518.063 787.008,505.758C799.313,493.453 806.231,476.774 806.25,459.375L806.25,440.625C806.23,423.227 799.312,406.547 787.008,394.242C774.703,381.937 758.024,375.019 740.625,375L731.25,375L731.25,300C746.164,300.02 760.457,305.953 771.004,316.496C781.547,327.043 787.481,341.336 787.5,356.25C787.5,357.516 787.453,358.922 787.359,360.422C787.074,364.668 788.246,368.883 790.68,372.371C793.113,375.859 796.66,378.418 800.742,379.617C830.941,388.601 855.992,409.832 869.801,438.152C883.61,466.476 884.914,499.289 873.394,528.613C861.874,557.941 838.585,581.093 809.195,592.445C779.8,603.793 746.996,602.301 718.757,588.328C725.312,567.789 729.312,546.519 730.663,525L730.664,525ZM168.754,600C132.399,599.992 98.289,582.422 77.176,552.828C56.063,523.23 50.551,485.258 62.379,450.878C74.203,416.499 101.91,389.956 136.762,379.612C140.844,378.413 144.391,375.854 146.824,372.366C149.258,368.878 150.43,364.663 150.144,360.417C150.051,358.917 150.004,357.511 150.004,356.245C150.023,341.331 155.957,327.038 166.5,316.491C177.047,305.948 191.34,300.014 206.254,299.995L206.254,374.995L196.879,374.995C179.481,375.015 162.801,381.932 150.496,394.237C138.191,406.542 131.273,423.221 131.254,440.62L131.254,459.37C131.273,476.768 138.191,493.448 150.496,505.753C162.801,518.058 179.48,524.976 196.879,524.995L206.769,524.995C208.078,546.534 212.035,567.827 218.558,588.393C203.074,596.053 186.027,600.026 168.753,599.995L168.754,600ZM206.254,412.5L206.254,487.5L196.879,487.5C189.422,487.492 182.274,484.527 177,479.254C171.727,473.981 168.762,466.832 168.754,459.375L168.754,440.625C168.762,433.168 171.727,426.02 177,420.746C182.273,415.472 189.422,412.508 196.879,412.5L206.254,412.5ZM243.754,262.5C243.754,202.828 267.461,145.6 309.656,103.4C351.851,61.205 409.082,37.498 468.756,37.498C528.43,37.498 585.656,61.205 627.856,103.4C670.051,145.595 693.758,202.826 693.758,262.5L693.758,325.102C684.977,320.907 675.363,318.735 665.633,318.75L271.883,318.75C262.153,318.735 252.539,320.907 243.758,325.102L243.754,262.5ZM243.754,384.38C243.762,376.923 246.727,369.775 252,364.501C257.274,359.228 264.422,356.263 271.879,356.255L665.629,356.255C673.086,356.263 680.234,359.228 685.508,364.501C690.782,369.774 693.746,376.923 693.754,384.38L693.754,478.13C693.746,485.587 690.782,492.735 685.508,498.009C680.235,503.282 673.086,506.247 665.629,506.255L514.009,506.255L482.017,474.239C478.498,470.727 473.724,468.755 468.751,468.755C463.778,468.755 459.005,470.727 455.485,474.239L423.493,506.255L271.873,506.255C264.416,506.247 257.268,503.282 251.994,498.009C246.721,492.736 243.756,485.587 243.748,478.13L243.754,384.38ZM309.66,667.69C274.601,632.827 252.105,587.315 245.699,538.29C253.957,541.892 262.871,543.751 271.879,543.751L431.259,543.751C436.232,543.751 441.005,541.778 444.525,538.267L468.759,514.009L492.993,538.267C496.513,541.778 501.286,543.751 506.259,543.751L665.639,543.751C674.631,543.759 683.53,541.907 691.772,538.313C686.303,579.407 669.588,618.188 643.467,650.383C617.35,682.574 582.846,706.926 543.764,720.75L543.764,693.75C543.764,688.778 541.787,684.008 538.272,680.492C534.756,676.977 529.987,675 525.014,675L412.514,675C407.541,675 402.772,676.977 399.256,680.492C395.74,684.008 393.764,688.778 393.764,693.75L393.764,720.773C362.119,709.585 333.381,691.445 309.67,667.687L309.66,667.69ZM506.25,712.502L506.25,731.252C506.25,744.65 499.102,757.029 487.5,763.729C475.898,770.428 461.602,770.428 450,763.729C438.398,757.03 431.25,744.651 431.25,731.252L431.25,712.502L506.25,712.502ZM37.5,1162.5L37.5,1021.55C37.648,985.142 49.5,949.743 71.312,920.592C93.124,891.441 123.738,870.072 158.624,859.651L263.464,828.831L194.066,888.104C190.035,891.545 187.652,896.53 187.5,901.827C187.347,907.124 189.445,912.237 193.269,915.901L232.644,953.635L195.847,978.151C191.316,981.17 188.32,986.01 187.64,991.417C186.96,996.819 188.664,1002.25 192.308,1006.3L332.908,1162.51L37.5,1162.5ZM234.68,997.312L272.907,971.859C277.638,968.699 280.68,963.566 281.18,957.898C281.68,952.234 279.587,946.644 275.485,942.703L234.188,903.141L305.227,842.461L347.204,1122.33L234.68,997.312ZM546.35,1162.5L391.15,1162.5L358.173,942.662C391.189,963.818 429.583,975.045 468.793,975.006C508.004,974.967 546.379,963.67 579.353,942.451L546.35,1162.5ZM468.748,937.502C421.639,937.502 378.35,918.705 349.658,885.94L337.283,803.463C337.068,802.115 336.705,800.795 336.205,799.526C348.963,787.174 356.189,770.194 356.244,752.439L356.244,745.807C370.443,752.557 385.221,758.006 400.4,762.096C408.353,779.737 422.818,793.619 440.767,800.838C458.72,808.06 478.767,808.06 496.72,800.838C514.669,793.619 529.134,779.736 537.087,762.096C552.271,757.986 567.048,752.51 581.243,745.737L581.243,752.44C581.298,770.194 588.524,787.174 601.282,799.526C600.782,800.795 600.419,802.116 600.204,803.463L587.829,885.893C559.517,918.26 515.407,937.502 468.739,937.502L468.748,937.502ZM632.268,842.463L703.307,903.143L662.01,942.705C657.908,946.646 655.815,952.236 656.315,957.9C656.815,963.568 659.858,968.701 664.588,971.861L702.815,997.314L590.295,1122.33L632.268,842.463ZM899.998,1162.5L604.588,1162.5L745.188,1006.29C748.833,1002.25 750.536,996.812 749.856,991.41C749.176,986.004 746.18,981.164 741.649,978.144L704.852,953.628L744.227,915.894C748.051,912.23 750.149,907.117 749.997,901.82C749.844,896.523 747.461,891.539 743.43,888.097L674.032,828.824L778.872,859.644C813.759,870.066 844.372,891.429 866.184,920.585C887.996,949.741 899.848,985.14 899.996,1021.55L899.998,1162.5Z" style="fill-rule:nonzero;"/>
    </g>
</svg>
