<?xml version="1.0" encoding="UTF-8" standalone="no"?>
<!DOCTYPE svg PUBLIC "-//W3C//DTD SVG 1.1//EN" "http://www.w3.org/Graphics/SVG/1.1/DTD/svg11.dtd">
<svg width="100%" height="100%" viewBox="0 0 1200 1200" version="1.1" xmlns="http://www.w3.org/2000/svg" xmlns:xlink="http://www.w3.org/1999/xlink" xml:space="preserve" xmlns:serif="http://www.serif.com/" style="fill-rule:evenodd;clip-rule:evenodd;stroke-linejoin:round;stroke-miterlimit:2;">
    <g transform="matrix(1,0,0,1,133,0)">
        <path d="M806.25,829.45L806.25,787.497C806.25,782.524 804.273,777.755 800.758,774.239C797.242,770.723 792.473,768.747 787.5,768.747L712.5,768.747C707.527,768.747 702.758,770.723 699.242,774.239C695.726,777.755 693.75,782.524 693.75,787.497L693.75,795.513L650.672,782.857L634.36,758.341C631.496,754.055 626.996,751.138 621.915,750.278C620.868,750.098 619.809,750.012 618.75,750.02L618.75,723.887C651.184,701.305 678.094,671.688 697.48,637.25C716.867,602.809 728.226,564.438 730.71,525L740.625,525C758.023,524.981 774.703,518.063 787.008,505.758C799.313,493.453 806.231,476.774 806.25,459.375L806.25,440.625C806.246,420.488 796.98,401.473 781.125,389.063C785.179,385.516 787.503,380.387 787.5,375.001L787.5,281.251C787.5,276.279 785.523,271.509 782.007,267.993C778.492,264.478 773.722,262.501 768.749,262.501L745.382,262.501L693.702,81.591C686.913,58.126 672.706,37.497 653.206,22.786C633.706,8.079 609.964,0.087 585.538,0.005L351.958,0.005C327.532,0.087 303.79,8.079 284.29,22.786C264.79,37.497 250.583,58.126 243.794,81.591L192.114,262.501L168.747,262.501C163.775,262.501 159.005,264.478 155.489,267.993C151.974,271.509 149.997,276.278 149.997,281.251L149.997,375.001C149.993,380.388 152.317,385.517 156.372,389.063C140.517,401.473 131.251,420.489 131.247,440.625L131.247,459.375C131.267,476.773 138.185,493.453 150.489,505.758C162.794,518.063 179.473,524.981 196.872,525L206.786,525C209.271,564.441 220.63,602.812 240.016,637.25C259.403,671.688 286.313,701.305 318.746,723.887L318.746,750.02C317.688,750.012 316.629,750.098 315.582,750.278C310.5,751.137 306,754.055 303.137,758.341L286.825,782.857L243.747,795.513L243.747,787.497C243.747,782.524 241.771,777.755 238.255,774.239C234.739,770.723 229.97,768.747 224.997,768.747L149.997,768.747C145.024,768.747 140.255,770.723 136.739,774.239C133.223,777.755 131.247,782.524 131.247,787.497L131.247,829.45C92.501,844.423 59.208,870.805 35.774,905.102C12.34,939.403 -0.136,980.004 -0.003,1021.54L-0.003,1181.24C-0.003,1186.21 1.973,1190.98 5.489,1194.5C9.005,1198.02 13.774,1199.99 18.747,1199.99L918.747,1199.99C923.72,1199.99 928.489,1198.02 932.005,1194.5C935.521,1190.98 937.497,1186.21 937.497,1181.24L937.497,1021.54C937.63,980.003 925.153,939.401 901.72,905.102C878.286,870.805 844.993,844.422 806.247,829.45L806.25,829.45ZM131.25,1162.5L37.5,1162.5L37.5,1021.55C37.402,990.097 46.137,959.249 62.711,932.519C79.285,905.789 103.031,884.249 131.25,870.355L131.25,1162.5ZM632.88,823.76L558.372,913.174L502.31,879.518L614.13,795.635L632.88,823.76ZM584.06,771.33L468.75,857.814L353.44,771.33C355.303,765.205 356.252,758.842 356.252,752.439L356.252,745.736C391.404,762.431 429.834,771.095 468.752,771.095C507.67,771.095 546.1,762.431 581.252,745.736L581.252,752.439C581.252,758.841 582.202,765.205 584.065,771.33L584.06,771.33ZM768.75,440.63L768.75,459.38C768.742,466.837 765.777,473.985 760.504,479.259C755.231,484.532 748.082,487.497 740.625,487.505L731.25,487.505L731.25,412.505L740.625,412.505C748.082,412.513 755.23,415.478 760.504,420.751C765.777,426.025 768.742,433.173 768.75,440.63L768.75,440.63ZM279.84,91.9C284.363,76.255 293.836,62.498 306.84,52.689C319.84,42.884 335.672,37.552 351.957,37.501L585.537,37.501C601.822,37.552 617.654,42.884 630.654,52.689C643.658,62.498 653.131,76.255 657.654,91.9L706.381,262.5L231.111,262.5L279.84,91.9ZM206.246,487.5L196.871,487.5C189.414,487.492 182.266,484.527 176.992,479.254C171.719,473.981 168.754,466.832 168.746,459.375L168.746,440.625C168.754,433.168 171.719,426.02 176.992,420.746C182.265,415.473 189.414,412.508 196.871,412.5L206.246,412.5L206.246,487.5ZM187.496,356.25L187.496,300L749.996,300L749.996,356.25L187.496,356.25ZM243.746,393.75L693.746,393.75L693.746,480.562L609.699,578.601C602.093,562.574 590.097,549.031 575.105,539.542C560.113,530.053 542.738,525.011 524.996,524.999L412.496,524.999C394.754,525.011 377.379,530.054 362.387,539.542C347.395,549.03 335.399,562.573 327.793,578.601L243.746,480.562L243.746,393.75ZM246.066,540.91L323.269,630.957C326.617,634.855 331.414,637.211 336.546,637.469C341.675,637.73 346.687,635.875 350.413,632.336C354.136,628.797 356.245,623.883 356.245,618.746C356.265,603.832 362.198,589.539 372.741,578.992C383.288,568.449 397.581,562.515 412.495,562.496L524.995,562.496C539.909,562.515 554.202,568.449 564.749,578.992C575.292,589.539 581.226,603.832 581.245,618.746C581.245,623.883 583.355,628.797 587.077,632.336C590.804,635.875 595.816,637.73 600.944,637.469C606.077,637.211 610.874,634.855 614.221,630.957L691.424,540.91C683.655,594.426 656.873,643.35 615.983,678.74C575.088,714.123 522.823,733.599 468.743,733.599C414.663,733.599 362.403,714.122 321.503,678.74C280.612,643.353 253.831,594.428 246.062,540.91L246.066,540.91ZM323.363,795.63L435.183,879.513L379.121,913.169L304.613,823.755L323.363,795.63ZM243.746,834.607L262.918,828.982C263.563,831.927 264.907,834.677 266.832,836.998L360.582,949.498C363.45,952.935 367.45,955.236 371.863,955.982C376.278,956.732 380.813,955.877 384.652,953.576L468.746,903.115L552.84,953.576C556.68,955.877 561.215,956.732 565.629,955.982C570.044,955.236 574.044,952.935 576.91,949.498L670.66,836.998C672.586,834.677 673.93,831.927 674.574,828.982L693.747,834.607L693.747,1012.5L243.746,1012.5L243.746,834.607ZM168.746,806.248L206.246,806.248L206.246,1012.5L168.746,1012.5L168.746,806.248ZM768.746,1162.5L168.746,1162.5L168.746,1050L768.746,1050L768.746,1162.5ZM768.746,1012.5L731.246,1012.5L731.246,806.248L768.746,806.248L768.746,1012.5ZM899.996,1162.5L806.246,1162.5L806.246,870.348C834.465,884.243 858.211,905.782 874.785,932.512C891.359,959.242 900.094,990.09 899.996,1021.54L899.996,1162.5Z" style="fill-rule:nonzero;"/>
    </g>
    <g transform="matrix(1,0,0,1,133,0)">
        <path d="M356.25,468.75C361.223,468.75 365.992,466.773 369.508,463.258C373.024,459.742 375,454.973 375,450L375,431.25C375,424.551 371.426,418.363 365.625,415.012C359.824,411.664 352.676,411.664 346.875,415.012C341.074,418.363 337.5,424.551 337.5,431.25L337.5,450C337.5,454.972 339.477,459.742 342.992,463.258C346.508,466.773 351.278,468.75 356.25,468.75L356.25,468.75Z" style="fill-rule:nonzero;"/>
    </g>
    <g transform="matrix(1,0,0,1,133,0)">
        <path d="M581.25,468.75C586.223,468.75 590.992,466.773 594.508,463.258C598.024,459.742 600,454.973 600,450L600,431.25C600,424.551 596.426,418.363 590.625,415.012C584.824,411.664 577.676,411.664 571.875,415.012C566.074,418.363 562.5,424.551 562.5,431.25L562.5,450C562.5,454.972 564.477,459.742 567.992,463.258C571.508,466.773 576.278,468.75 581.25,468.75L581.25,468.75Z" style="fill-rule:nonzero;"/>
    </g>
    <g transform="matrix(1,0,0,1,133,0)">
        <path d="M525,618.75C525,613.777 523.023,609.008 519.508,605.492C515.992,601.976 511.223,600 506.25,600L431.25,600C424.551,600 418.363,603.574 415.012,609.375C411.664,615.176 411.664,622.324 415.012,628.125C418.363,633.926 424.551,637.5 431.25,637.5L506.25,637.5C511.222,637.5 515.992,635.523 519.508,632.008C523.023,628.492 525,623.722 525,618.75L525,618.75Z" style="fill-rule:nonzero;"/>
    </g>
</svg>
