<?xml version="1.0" encoding="UTF-8" standalone="no"?>
<!DOCTYPE svg PUBLIC "-//W3C//DTD SVG 1.1//EN" "http://www.w3.org/Graphics/SVG/1.1/DTD/svg11.dtd">
<svg width="100%" height="100%" viewBox="0 0 1200 1200" version="1.1" xmlns="http://www.w3.org/2000/svg" xmlns:xlink="http://www.w3.org/1999/xlink" xml:space="preserve" xmlns:serif="http://www.serif.com/" style="fill-rule:evenodd;clip-rule:evenodd;stroke-linejoin:round;stroke-miterlimit:2;">
    <g transform="matrix(1,0,0,1,131,0)">
        <path d="M806.25,829.45L806.25,806.247C806.25,802.067 804.852,798.005 802.277,794.708C799.703,791.415 796.102,789.075 792.047,788.06L717.047,769.31C711.446,767.911 705.512,769.169 700.961,772.72C696.411,776.275 693.75,781.724 693.75,787.497L693.75,795.536L638.953,779.388C633.137,777.661 628.031,774.107 624.394,769.251C620.754,764.399 618.777,758.501 618.75,752.435L618.75,723.888C651.184,701.306 678.094,671.689 697.48,637.251C716.867,602.81 728.226,564.439 730.71,525.001L740.624,525.001C758.022,524.981 774.702,518.063 787.007,505.759C799.312,493.454 806.23,476.775 806.249,459.376L806.249,440.626C806.229,423.228 799.311,406.548 787.007,394.243C774.702,381.938 758.023,375.02 740.624,375.001L731.249,375.001L731.249,356.251L768.749,356.251C773.722,356.251 778.491,354.274 782.007,350.759C785.523,347.243 787.499,342.474 787.499,337.501L787.499,281.251C787.499,276.278 785.523,271.508 782.007,267.993C778.491,264.477 773.722,262.501 768.749,262.501L749.319,262.501C741.21,151.051 661.757,53.91 562.499,26.48L562.499,18.746C562.499,12.047 558.925,5.859 553.124,2.508C547.323,-0.84 540.175,-0.84 534.374,2.508C528.573,5.86 524.999,12.047 524.999,18.746L524.999,19.613C518.788,19.051 512.53,18.746 506.249,18.746L487.499,18.746C487.499,12.047 483.925,5.859 478.124,2.508C472.323,-0.84 465.175,-0.84 459.374,2.508C453.573,5.86 449.999,12.047 449.999,18.746L431.249,18.746C424.968,18.746 418.71,19.051 412.499,19.613L412.499,18.746C412.499,12.047 408.925,5.859 403.124,2.508C397.323,-0.84 390.175,-0.84 384.374,2.508C378.573,5.86 374.999,12.047 374.999,18.746L374.999,26.48C275.741,53.902 196.289,151.05 188.179,262.501L168.749,262.501C163.776,262.501 159.007,264.477 155.491,267.993C151.975,271.508 149.999,276.278 149.999,281.251L149.999,337.501C149.999,342.473 151.975,347.243 155.491,350.759C159.007,354.274 163.776,356.251 168.749,356.251L206.249,356.251L206.249,375.001L196.874,375.001C179.476,375.02 162.796,381.938 150.491,394.243C138.186,406.548 131.268,423.227 131.249,440.626L131.249,459.376C131.269,476.774 138.187,493.454 150.491,505.759C162.796,518.064 179.475,524.982 196.874,525.001L206.788,525.001C209.273,564.442 220.632,602.813 240.018,637.251C259.405,671.689 286.315,701.306 318.748,723.888L318.748,752.435C318.717,758.505 316.74,764.404 313.1,769.259C309.463,774.118 304.361,777.677 298.545,779.411L243.748,795.536L243.748,787.497C243.748,781.723 241.088,776.274 236.537,772.72C231.986,769.169 226.053,767.911 220.451,769.31L145.451,788.06C141.396,789.075 137.795,791.415 135.221,794.708C132.647,798.005 131.248,802.067 131.248,806.247L131.248,829.45C92.502,844.423 59.209,870.805 35.775,905.102C12.341,939.403 -0.135,980.004 -0.002,1021.54L-0.002,1181.24C-0.002,1186.21 1.975,1190.98 5.49,1194.5C9.006,1198.02 13.776,1199.99 18.748,1199.99L918.748,1199.99C923.721,1199.99 928.491,1198.02 932.006,1194.5C935.522,1190.98 937.499,1186.21 937.499,1181.24L937.499,1021.54C937.631,980.003 925.155,939.401 901.722,905.102C878.288,870.805 844.995,844.422 806.249,829.45L806.25,829.45ZM206.25,487.5L196.875,487.5C189.418,487.492 182.27,484.527 176.996,479.254C171.723,473.981 168.758,466.832 168.75,459.375L168.75,440.625C168.758,433.168 171.723,426.02 176.996,420.746C182.269,415.473 189.418,412.508 196.875,412.5L206.25,412.5L206.25,487.5ZM131.25,1162.5L37.5,1162.5L37.5,1021.55C37.402,990.097 46.137,959.249 62.711,932.519C79.285,905.789 103.031,884.249 131.25,870.355L131.25,1162.5ZM740.63,412.5C748.087,412.508 755.235,415.473 760.509,420.746C765.782,426.02 768.747,433.168 768.755,440.625L768.755,459.375C768.747,466.832 765.782,473.98 760.509,479.254C755.236,484.528 748.087,487.492 740.63,487.5L731.255,487.5L731.255,412.5L740.63,412.5ZM286.11,125.3C311.798,96.683 342.266,76.339 375.008,65.441L375.008,93.753C375.008,100.452 378.582,106.64 384.383,109.991C390.184,113.339 397.332,113.339 403.133,109.991C408.934,106.639 412.508,100.452 412.508,93.753L412.508,57.261C418.735,56.597 424.996,56.261 431.258,56.253L450.008,56.253L450.008,131.253C450.008,137.952 453.582,144.14 459.383,147.491C465.184,150.839 472.332,150.839 478.133,147.491C483.934,144.14 487.508,137.952 487.508,131.253L487.508,56.253L506.258,56.253C512.52,56.261 518.781,56.597 525.008,57.261L525.008,93.753C525.008,100.452 528.582,106.64 534.383,109.991C540.184,113.339 547.332,113.339 553.133,109.991C558.934,106.639 562.508,100.452 562.508,93.753L562.508,65.441C595.25,76.339 625.719,96.683 651.406,125.3C685.66,163.409 706.789,211.499 711.687,262.5L225.827,262.5C230.725,211.496 251.854,163.406 286.108,125.3L286.11,125.3ZM187.508,318.75L187.508,300L750.008,300L750.008,318.75L187.508,318.75ZM243.758,508.59L243.758,356.25L693.758,356.25L693.758,508.59C693.758,568.262 670.051,625.49 627.856,667.69C585.661,709.885 528.43,733.592 468.756,733.592C409.082,733.592 351.856,709.885 309.656,667.69C267.461,625.495 243.754,568.264 243.754,508.59L243.758,508.59ZM618.598,811.61C615.364,881.501 549.41,937.49 468.758,937.49C388.106,937.49 322.138,881.498 318.918,811.61C330.063,806.235 339.469,797.837 346.07,787.372C352.672,776.911 356.199,764.802 356.254,752.431L356.254,745.728C391.406,762.423 429.836,771.087 468.754,771.087C507.672,771.087 546.102,762.423 581.254,745.728L581.254,752.431C581.309,764.802 584.836,776.911 591.438,787.372C598.04,797.837 607.446,806.235 618.59,811.61L618.598,811.61ZM243.758,834.626L282.219,823.306C291.735,908.361 371.774,974.996 468.759,974.996C565.744,974.996 645.779,908.363 655.299,823.306L693.76,834.626L693.76,1012.5L243.76,1012.5L243.758,834.626ZM168.758,820.892L206.258,811.517L206.258,1012.5L168.758,1012.5L168.758,820.892ZM768.758,1162.49L168.758,1162.49L168.758,1049.99L768.758,1049.99L768.758,1162.49ZM768.758,1012.49L731.258,1012.49L731.258,811.512L768.758,820.887L768.758,1012.49ZM900.008,1162.49L806.258,1162.49L806.258,870.342C834.477,884.237 858.223,905.776 874.797,932.506C891.371,959.236 900.106,990.084 900.008,1021.54L900.008,1162.49Z" style="fill-rule:nonzero;"/>
    </g>
    <g transform="matrix(1,0,0,1,131,0)">
        <path d="M538.26,613.26C541.842,609.76 543.873,604.971 543.901,599.959C543.928,594.951 541.951,590.139 538.408,586.596C534.869,583.053 530.057,581.077 525.049,581.104C520.038,581.131 515.249,583.162 511.744,586.744C494.06,604.424 443.439,604.424 425.756,586.744L425.76,586.744C422.256,583.162 417.467,581.131 412.455,581.104C407.448,581.076 402.635,583.053 399.096,586.596C395.553,590.139 393.577,594.952 393.604,599.959C393.631,604.971 395.663,609.76 399.245,613.26C415.483,629.498 442.116,637.619 468.753,637.619C495.386,637.619 522.023,629.502 538.261,613.26L538.26,613.26Z" style="fill-rule:nonzero;"/>
    </g>
    <g transform="matrix(1,0,0,1,131,0)">
        <path d="M356.25,412.5C351.277,412.5 346.508,414.477 342.992,417.992C339.476,421.508 337.5,426.277 337.5,431.25L337.5,450C337.5,456.699 341.074,462.887 346.875,466.238C352.676,469.586 359.824,469.586 365.625,466.238C371.426,462.887 375,456.699 375,450L375,431.25C375,426.278 373.023,421.508 369.508,417.992C365.992,414.477 361.222,412.5 356.25,412.5L356.25,412.5Z" style="fill-rule:nonzero;"/>
    </g>
    <g transform="matrix(1,0,0,1,131,0)">
        <path d="M581.25,468.75C586.223,468.75 590.992,466.773 594.508,463.258C598.024,459.742 600,454.973 600,450L600,431.25C600,424.551 596.426,418.363 590.625,415.012C584.824,411.664 577.676,411.664 571.875,415.012C566.074,418.363 562.5,424.551 562.5,431.25L562.5,450C562.5,454.972 564.477,459.742 567.992,463.258C571.508,466.773 576.278,468.75 581.25,468.75L581.25,468.75Z" style="fill-rule:nonzero;"/>
    </g>
</svg>
