<?xml version="1.0" encoding="UTF-8"?>
<svg width="1200pt" height="1200pt" version="1.1" viewBox="0 0 1200 1200" xmlns="http://www.w3.org/2000/svg">
 <path d="m1027.6 897.98c-26.613-35.746-64.16-61.832-106.95-74.297l-17.648-5.2031c31.789-55.012 47.859-117.7 46.453-181.22l-1.6406-97.922c8.0977-3.7617 14.953-9.7578 19.758-17.277 4.8086-7.5234 7.3711-16.262 7.3828-25.191v-75c-0.011719-14.727-6.957-28.586-18.75-37.406v-28.219c0-96.117-33.539-185.39-94.453-251.37-62.438-67.641-148.76-104.88-243.05-104.88h-37.5c-94.289 0-180.61 37.242-243.05 104.88-60.914 65.977-94.453 155.25-94.453 251.37v28.219c-11.793 8.8203-18.738 22.68-18.75 37.406v75c0.011719 8.9297 2.5742 17.668 7.3828 25.191 4.8047 7.5195 11.66 13.516 19.758 17.277l-1.6406 97.852c-1.4141 63.543 14.652 126.26 46.453 181.29l-17.648 5.2031c-42.738 12.566-80.258 38.633-106.95 74.297-26.688 35.668-41.113 79.016-41.109 123.56v159.7c0 4.9727 1.9766 9.7422 5.4922 13.258 3.5156 3.5156 8.2852 5.4922 13.258 5.4922h900c4.9727 0 9.7422-1.9766 13.258-5.4922 3.5156-3.5156 5.4922-8.2852 5.4922-13.258v-159.7c0.10547-44.562-14.328-87.945-41.109-123.56zm-161.74-90.422-95.719-28.172c-5.8086-1.7344-10.91-5.2891-14.543-10.141-3.6328-4.8555-5.6094-10.75-5.6367-16.812v-35.438c48.805-38.098 81.289-93.332 90.867-154.5h40.383c4.9727 0 9.7422-1.9766 13.258-5.4922 3.5156-3.5156 5.4922-8.2852 5.4922-13.258h10.43l1.5703 94.195c1.3438 59.805-14.668 118.72-46.102 169.62zm-384.35-113.81c-15.113-10.645-28.742-23.254-40.523-37.5h46.477c6.6992 0 12.887-3.5742 16.238-9.375 3.3477-5.8008 3.3477-12.949 0-18.75-3.3516-5.8008-9.5391-9.375-16.238-9.375h-71.18c-14.875-29.008-22.613-61.148-22.57-93.75v-133.85c111.75-19.359 227.7-92.156 281.25-129.35v75.703c0 4.9727 1.9766 9.7422 5.4922 13.258 3.5156 3.5156 8.2852 5.4922 13.258 5.4922 38.844-0.375 77.176-8.918 112.5-25.078v193.83c0.023438 49.758-17.949 97.848-50.605 135.39-32.656 37.543-77.793 62.008-127.07 68.879-49.285 6.8711-99.391-4.3125-141.07-31.492v-4.0312zm362.2-168.75v-131.25h18.75v131.25zm93.75-103.12v75c0 2.4883-0.98828 4.8711-2.7461 6.6289-1.7578 1.7578-4.1406 2.7461-6.6289 2.7461h-28.125v-93.75h28.125c2.4883 0 4.8711 0.98828 6.6289 2.7461 1.7578 1.7578 2.7461 4.1406 2.7461 6.6289zm-656.25-65.625c0-181.71 128.98-318.75 300-318.75h37.5c171.02 0 300 137.04 300 318.75v18.75h-18.75c0-4.9727-1.9766-9.7422-5.4922-13.258-3.5156-3.5156-8.2852-5.4922-13.258-5.4922h-37.5v-56.25c-0.007812-4.5391-1.6602-8.918-4.6523-12.332-2.9883-3.4102-7.1133-5.625-11.609-6.2344-4.4961-0.60547-9.0586 0.4375-12.848 2.9336-31.137 18.625-66.027 30.082-102.14 33.539v-92.906c0.003906-4.7031-1.7656-9.2383-4.9492-12.699-3.1836-3.4648-7.5547-5.6055-12.242-5.9961-4.6875-0.39063-9.3516 0.99609-13.066 3.8828-1.6406 1.2891-165.73 127.69-308.51 146.06h-54.984c-4.9727 0-9.7422 1.9766-13.258 5.4922-3.5156 3.5156-5.4922 8.2852-5.4922 13.258h-18.75zm75 206.25h2.8828c3 19.32 8.3281 38.207 15.867 56.25h-18.75zm-18.75-37.5v-131.25h18.75v131.25zm-75-28.125v-75c0-5.1758 4.1992-9.375 9.375-9.375h28.125v93.75h-28.125c-5.1758 0-9.375-4.1992-9.375-9.375zm25.5 141 1.5703-94.125h10.43c0 4.9727 1.9766 9.7422 5.4922 13.258 3.5156 3.5156 8.2852 5.4922 13.258 5.4922v75c0 4.9727 1.9766 9.7422 5.4922 13.258 3.5156 3.5156 8.2852 5.4922 13.258 5.4922h57.188c14.898 23.211 33.598 43.746 55.312 60.75v35.438c-0.027344 6.0664-2.0039 11.965-5.6445 16.816-3.6367 4.8555-8.7422 8.4102-14.559 10.137l-95.695 28.172c-31.441-50.922-47.453-109.86-46.102-169.69zm255.75 524.62h-375v-140.95c0.14453-36.41 12.004-71.809 33.82-100.96 21.816-29.152 52.434-50.508 87.328-60.918l147.73-43.477c7.8281 32.93 22.711 59.789 44.461 80.016 17.508 16.062 38.676 27.598 61.664 33.609zm75 0h-37.5v-225h37.5zm-18.75-263.11c-39.422 0-70.5-10.312-92.367-30.633-18.75-17.438-30.82-42.234-36-73.734 10.188-11.855 15.816-26.953 15.867-42.586v-11.25c34.734 18.105 73.328 27.562 112.5 27.562s77.766-9.457 112.5-27.562v11.25c0.050781 15.633 5.6797 30.73 15.867 42.586-5.1797 31.5-17.25 56.297-36 73.734-21.867 20.32-52.945 30.633-92.367 30.633zm431.25 263.11h-375v-232.69c22.988-6.0117 44.156-17.547 61.664-33.609 21.75-20.227 36.633-47.086 44.461-80.016l147.73 43.477c34.895 10.41 65.512 31.766 87.328 60.918 21.816 29.156 33.676 64.555 33.82 100.96z"/>
 <path d="m918.75 1031.2h-150c-4.9727 0-9.7422 1.9766-13.258 5.4922-3.5156 3.5156-5.4922 8.2852-5.4922 13.258v56.25c0 4.9727 1.9766 9.7422 5.4922 13.258 3.5156 3.5156 8.2852 5.4922 13.258 5.4922h150c4.9727 0 9.7422-1.9766 13.258-5.4922 3.5156-3.5156 5.4922-8.2852 5.4922-13.258v-56.25c0-4.9727-1.9766-9.7422-5.4922-13.258-3.5156-3.5156-8.2852-5.4922-13.258-5.4922zm-18.75 56.25h-112.5v-18.75h112.5z"/>
 <path d="m506.25 450c0-6.6992-3.5742-12.887-9.375-16.238-5.8008-3.3477-12.949-3.3477-18.75 0-5.8008 3.3516-9.375 9.5391-9.375 16.238v18.75c0 6.6992 3.5742 12.887 9.375 16.238 5.8008 3.3477 12.949 3.3477 18.75 0 5.8008-3.3516 9.375-9.5391 9.375-16.238z"/>
 <path d="m712.5 431.25c-4.9727 0-9.7422 1.9766-13.258 5.4922-3.5156 3.5156-5.4922 8.2852-5.4922 13.258v18.75c0 6.6992 3.5742 12.887 9.375 16.238 5.8008 3.3477 12.949 3.3477 18.75 0 5.8008-3.3516 9.375-9.5391 9.375-16.238v-18.75c0-4.9727-1.9766-9.7422-5.4922-13.258-3.5156-3.5156-8.2852-5.4922-13.258-5.4922z"/>
 <path d="m525 412.5c6.6992 0 12.887-3.5742 16.238-9.375 3.3477-5.8008 3.3477-12.949 0-18.75-3.3516-5.8008-9.5391-9.375-16.238-9.375h-56.25c-6.6992 0-12.887 3.5742-16.238 9.375-3.3477 5.8008-3.3477 12.949 0 18.75 3.3516 5.8008 9.5391 9.375 16.238 9.375z"/>
 <path d="m675 412.5h56.25c6.6992 0 12.887-3.5742 16.238-9.375 3.3477-5.8008 3.3477-12.949 0-18.75-3.3516-5.8008-9.5391-9.375-16.238-9.375h-56.25c-6.6992 0-12.887 3.5742-16.238 9.375-3.3477 5.8008-3.3477 12.949 0 18.75 3.3516 5.8008 9.5391 9.375 16.238 9.375z"/>
 <path d="m675 562.5h-150c-4.9727 0-9.7422 1.9766-13.258 5.4922-3.5156 3.5156-5.4922 8.2852-5.4922 13.258 0 33.492 17.867 64.441 46.875 81.191 29.008 16.746 64.742 16.746 93.75 0 29.008-16.75 46.875-47.699 46.875-81.191 0-4.9727-1.9766-9.7422-5.4922-13.258-3.5156-3.5156-8.2852-5.4922-13.258-5.4922zm-75 75c-11.629-0.011719-22.969-3.625-32.465-10.34s-16.684-16.199-20.57-27.16h106.07-0.003906c-3.8867 10.961-11.074 20.445-20.57 27.16s-20.836 10.328-32.465 10.34z"/>
</svg>
