<?xml version="1.0" encoding="UTF-8" standalone="no"?>
<!DOCTYPE svg PUBLIC "-//W3C//DTD SVG 1.1//EN" "http://www.w3.org/Graphics/SVG/1.1/DTD/svg11.dtd">
<svg width="100%" height="100%" viewBox="0 0 1200 1200" version="1.1" xmlns="http://www.w3.org/2000/svg" xmlns:xlink="http://www.w3.org/1999/xlink" xml:space="preserve" xmlns:serif="http://www.serif.com/" style="fill-rule:evenodd;clip-rule:evenodd;stroke-linejoin:round;stroke-miterlimit:2;">
    <g transform="matrix(1,0,0,1,127,0)">
        <path d="M864.02,863.53C870.629,808.147 870.606,717.8 814.567,661.73C749.036,596.222 762.301,516.04 763.403,510.14C778.649,497.695 787.497,479.054 787.497,459.374L787.497,440.624C787.513,423.444 780.759,406.948 768.7,394.71C768.723,394.382 768.747,394.077 768.747,393.749L768.747,356.249C773.72,356.249 778.489,354.272 782.005,350.757C785.52,347.241 787.497,342.472 787.497,337.499L787.497,281.249C787.497,276.276 785.52,271.507 782.005,267.991C778.489,264.475 773.72,262.499 768.747,262.499L749.317,262.499C741.207,151.049 661.755,53.909 562.497,26.479L562.497,18.744C562.497,12.045 558.923,5.857 553.122,2.506C547.321,-0.841 540.173,-0.841 534.372,2.506C528.571,5.858 524.997,12.045 524.997,18.744L524.997,19.611C518.786,19.049 512.528,18.744 506.247,18.744L487.497,18.744C487.497,12.045 483.923,5.857 478.122,2.506C472.321,-0.841 465.173,-0.841 459.372,2.506C453.571,5.858 449.997,12.045 449.997,18.744L431.247,18.744C424.966,18.744 418.708,19.049 412.497,19.611L412.497,18.744C412.497,12.045 408.923,5.857 403.122,2.506C397.321,-0.841 390.173,-0.841 384.372,2.506C378.571,5.858 374.997,12.045 374.997,18.744L374.997,26.479C275.739,53.901 196.287,151.049 188.177,262.499L168.747,262.499C163.774,262.499 159.005,264.475 155.489,267.991C151.973,271.506 149.997,276.276 149.997,281.249L149.997,337.499C149.997,342.472 151.973,347.241 155.489,350.757C159.004,354.272 163.774,356.249 168.747,356.249L168.747,393.749C168.747,394.077 168.77,394.382 168.794,394.71C156.735,406.948 149.982,423.444 149.997,440.624L149.997,459.374C149.997,476.558 156.747,493.054 168.794,505.312C168.712,506.835 168.813,508.363 169.098,509.859C169.755,513.304 184.59,595.125 117.981,661.739C90.465,689.278 73.59,727.973 67.825,776.819C64.583,806.952 64.986,837.366 69.021,867.405C47.248,886.741 29.833,910.483 17.935,937.057C6.033,963.631 -0.081,992.436 -0.003,1021.55L-0.003,1181.25C-0.003,1186.23 1.973,1191 5.489,1194.51C9.005,1198.03 13.774,1200 18.747,1200L918.747,1200C923.72,1200 928.489,1198.03 932.005,1194.51C935.521,1191 937.497,1186.23 937.497,1181.25L937.497,1021.55C937.587,991.44 931.048,961.674 918.352,934.365C905.653,907.056 887.106,882.877 864.02,863.537L864.02,863.53ZM286.1,125.3C311.788,96.683 342.256,76.339 374.998,65.441L374.998,93.753C374.998,100.452 378.572,106.64 384.373,109.991C390.174,113.339 397.322,113.339 403.123,109.991C408.924,106.639 412.498,100.452 412.498,93.753L412.498,57.261C418.725,56.597 424.986,56.261 431.248,56.253L449.998,56.253L449.998,131.253C449.998,137.952 453.572,144.14 459.373,147.491C465.174,150.839 472.322,150.839 478.123,147.491C483.924,144.14 487.498,137.952 487.498,131.253L487.498,56.253L506.248,56.253C512.51,56.261 518.771,56.597 524.998,57.261L524.998,93.753C524.998,100.452 528.572,106.64 534.373,109.991C540.174,113.339 547.322,113.339 553.123,109.991C558.924,106.639 562.498,100.452 562.498,93.753L562.498,65.441C595.24,76.339 625.709,96.683 651.396,125.3C685.65,163.409 706.779,211.499 711.677,262.5L225.817,262.5C230.715,211.496 251.844,163.406 286.098,125.3L286.1,125.3ZM187.498,300L749.998,300L749.998,318.75L187.498,318.75L187.498,300ZM721.878,412.5C729.335,412.508 736.483,415.473 741.757,420.746C747.03,426.019 749.995,433.168 750.003,440.625L750.003,459.375C749.995,466.832 747.03,473.98 741.757,479.254C736.484,484.527 729.335,487.492 721.878,487.5L712.503,487.5L712.503,412.5L721.878,412.5ZM712.503,375L712.503,356.25L731.253,356.25L731.253,375.68C728.148,375.227 725.015,375 721.878,375L712.503,375ZM468.753,937.5C388.105,937.5 322.133,881.508 318.913,811.62C330.058,806.245 339.464,797.847 346.065,787.382C352.667,776.921 356.194,764.812 356.249,752.441L356.249,743.535C390.983,761.64 429.577,771.097 468.749,771.097C507.921,771.097 546.515,761.64 581.249,743.535L581.249,752.441C581.304,764.812 584.831,776.921 591.433,787.382C598.035,797.847 607.441,806.245 618.585,811.62C615.351,881.511 549.397,937.5 468.745,937.5L468.753,937.5ZM655.293,823.31L693.754,834.63L693.754,1012.5L243.754,1012.5L243.754,834.63L282.215,823.31C291.731,908.365 371.77,975 468.755,975C565.74,975 645.775,908.367 655.295,823.31L655.293,823.31ZM468.753,733.591C414.069,733.528 361.643,711.779 322.983,673.114C284.319,634.446 262.569,582.024 262.506,527.344L262.506,356.254L675.006,356.254L675.006,527.344C674.944,582.028 653.194,634.454 614.529,673.114C575.861,711.778 523.439,733.528 468.759,733.591L468.753,733.591ZM225.003,356.251L225.003,375.001L215.628,375.001C212.491,375.001 209.359,375.228 206.253,375.681L206.253,356.251L225.003,356.251ZM187.503,440.626C187.511,433.169 190.476,426.021 195.749,420.747C201.023,415.474 208.171,412.509 215.628,412.501L225.003,412.501L225.003,487.501L215.628,487.501C208.171,487.493 201.023,484.528 195.749,479.255C190.476,473.981 187.511,466.833 187.503,459.376L187.503,440.626ZM131.253,1162.51L37.503,1162.51L37.503,1021.56C37.429,996.536 42.948,971.814 53.651,949.201C64.358,926.584 79.979,906.65 99.378,890.846C100.378,890.178 101.312,889.416 102.167,888.573C111.222,881.533 120.968,875.432 131.253,870.362L131.253,1162.51ZM145.456,788.066C141.401,789.082 137.8,791.421 135.226,794.714C132.652,798.011 131.253,802.074 131.253,806.253L131.253,829.456C121.929,833.07 112.882,837.351 104.183,842.276C100.832,796.76 104.019,728.766 144.519,688.266C165.957,666.926 182.695,641.344 193.664,613.153C204.629,584.965 209.582,554.794 208.199,524.579C210.668,524.849 213.149,524.99 215.629,525.001L225.004,525.001L225.004,527.345C225.004,564.368 233.445,600.907 249.692,634.175C265.938,667.448 289.559,696.573 318.754,719.343L318.754,752.437C318.723,758.507 316.746,764.406 313.106,769.261C309.469,774.12 304.367,777.679 298.551,779.413L243.754,795.538L243.754,787.499C243.754,781.726 241.093,776.276 236.543,772.722C231.992,769.171 226.059,767.913 220.457,769.312L145.456,788.066ZM206.253,811.527L206.253,1012.51L168.753,1012.51L168.753,820.907L206.253,811.527ZM768.753,1162.51L168.753,1162.51L168.753,1050.01L768.753,1050.01L768.753,1162.51ZM768.753,1012.51L731.253,1012.51L731.253,811.527L768.753,820.902L768.753,1012.51ZM792.05,788.067L717.05,769.317C711.448,767.919 705.515,769.176 700.964,772.727C696.413,776.282 693.753,781.731 693.753,787.504L693.753,795.543L638.956,779.395C633.14,777.669 628.034,774.114 624.397,769.258C620.757,764.407 618.78,758.508 618.753,752.442L618.753,719.348C647.948,696.578 671.569,667.453 687.815,634.18C704.061,600.91 712.503,564.371 712.503,527.35L712.503,525.006L721.878,525.006C722.698,525.006 723.518,524.983 724.339,524.936C723.007,555.096 727.987,585.202 738.956,613.327C749.924,641.452 766.644,666.979 788.042,688.272C803.23,703.46 835.245,747.03 828.659,839.722C821.397,835.863 813.917,832.433 806.253,829.456L806.253,806.253C806.253,802.073 804.854,798.011 802.28,794.714C799.706,791.421 796.104,789.081 792.05,788.066L792.05,788.067ZM900,1162.51L806.25,1162.51L806.25,870.357C815.184,874.767 823.711,879.959 831.727,885.873C832.422,886.471 833.157,887.021 833.93,887.514C854.539,903.244 871.227,923.53 882.692,946.784C894.153,970.038 900.079,995.628 900.001,1021.55L900,1162.51Z" style="fill-rule:nonzero;"/>
    </g>
    <g transform="matrix(1,0,0,1,127,0)">
        <path d="M581.25,468.75C586.223,468.75 590.992,466.773 594.508,463.258C598.024,459.742 600,454.973 600,450L600,431.25C600,424.551 596.426,418.363 590.625,415.012C584.824,411.664 577.676,411.664 571.875,415.012C566.074,418.363 562.5,424.551 562.5,431.25L562.5,450C562.5,454.972 564.477,459.742 567.992,463.258C571.508,466.773 576.278,468.75 581.25,468.75L581.25,468.75Z" style="fill-rule:nonzero;"/>
    </g>
    <g transform="matrix(1,0,0,1,127,0)">
        <path d="M356.25,468.75C361.223,468.75 365.992,466.773 369.508,463.258C373.024,459.742 375,454.973 375,450L375,431.25C375,424.551 371.426,418.363 365.625,415.012C359.824,411.664 352.676,411.664 346.875,415.012C341.074,418.363 337.5,424.551 337.5,431.25L337.5,450C337.5,454.972 339.477,459.742 342.992,463.258C346.508,466.773 351.278,468.75 356.25,468.75L356.25,468.75Z" style="fill-rule:nonzero;"/>
    </g>
    <g transform="matrix(1,0,0,1,127,0)">
        <path d="M468.75,675C493.605,674.973 517.434,665.086 535.012,647.512C552.586,629.934 562.473,606.106 562.5,581.25C562.5,576.277 560.523,571.508 557.008,567.992C553.492,564.476 548.723,562.5 543.75,562.5L393.75,562.5C388.777,562.5 384.008,564.476 380.492,567.992C376.976,571.508 375,576.277 375,581.25C375.027,606.105 384.914,629.934 402.488,647.512C420.066,665.086 443.894,674.973 468.75,675L468.75,675ZM521.785,600C516.586,614.719 505.504,626.613 491.191,632.84C476.879,639.067 460.621,639.067 446.308,632.84C431.996,626.613 420.913,614.719 415.714,600L521.785,600Z" style="fill-rule:nonzero;"/>
    </g>
</svg>
