<?xml version="1.0" encoding="UTF-8"?>
<svg width="1200pt" height="1200pt" version="1.1" viewBox="0 0 1200 1200" xmlns="http://www.w3.org/2000/svg">
 <path d="m912.4 838.17-162.38-57.305c-5.4844-1.9414-10.234-5.5352-13.598-10.285-3.3594-4.75-5.168-10.426-5.1758-16.246v-42.773c31.793-20.336 58.434-47.766 77.832-80.137 19.398-32.371 31.027-68.801 33.965-106.43h9.4922c15.922-0.019531 31.293-5.8203 43.258-16.32 11.969-10.504 19.715-24.992 21.805-40.773 47.957-4.5664 92.316-27.414 123.88-63.809 31.562-36.391 47.906-83.539 45.645-131.66-2.2656-48.121-22.965-93.523-57.805-126.79-34.84-33.27-81.148-51.852-129.32-51.895-24.223-0.0625-48.219 4.6211-70.641 13.781-37.574-44.984-87.516-77.957-143.64-94.836-56.129-16.883-115.97-16.926-172.13-0.13281-56.152 16.793-106.14 49.691-143.79 94.617-22.184-8.9297-45.883-13.492-69.797-13.43-48.07 0.046875-94.285 18.555-129.1 51.699-34.816 33.145-55.574 78.395-57.98 126.4-2.4102 48.008 13.711 95.109 45.031 131.57 31.32 36.465 75.449 59.508 123.27 64.367 2.0625 15.805 9.7969 30.32 21.766 40.848 11.973 10.523 27.359 16.34 43.297 16.363h10.664c2.9375 37.625 14.566 74.055 33.965 106.43 19.398 32.371 46.039 59.801 77.832 80.137v42.773c-0.007812 5.8203-1.8164 11.496-5.1758 16.246-3.3633 4.75-8.1133 8.3438-13.598 10.285l-162.38 57.305c-40.211 14.238-75.031 40.578-99.668 75.402-24.641 34.824-37.891 76.422-37.934 119.08v148.59c0 4.9727 1.9766 9.7422 5.4922 13.258 3.5156 3.5156 8.2852 5.4922 13.258 5.4922h862.5c4.9727 0 9.7422-1.9766 13.258-5.4922 3.5156-3.5156 5.4922-8.2852 5.4922-13.258v-148.59c-0.042969-42.66-13.293-84.258-37.934-119.08-24.637-34.824-59.457-61.164-99.668-75.402zm-31.734-378.8c-0.007812 7.457-2.9727 14.605-8.2461 19.879-5.2734 5.2734-12.422 8.2383-19.879 8.2461h-8.7891v-75h8.7891c7.457 0.007812 14.605 2.9727 19.879 8.2461 5.2734 5.2734 8.2383 12.422 8.2461 19.879zm19.336-328.12c51.527-0.007812 99.449 26.434 126.92 70.023 27.473 43.594 30.641 98.238 8.3984 144.71-22.246 46.477-66.793 78.281-117.97 84.23-2.1602-13.414-8.4453-25.824-17.977-35.508 0.023437-0.32813 0.046874-0.63281 0.046874-0.96094v-93.75c0.078126-57.062-16.227-112.95-46.969-161.02 15.328-5.1367 31.391-7.7461 47.555-7.7344zm-600.52 263.46c-9.4922 9.6523-15.766 22.008-17.953 35.367-51-6.3203-95.211-38.312-117.16-84.777-21.949-46.465-18.582-100.94 8.9219-144.34 27.508-43.41 75.32-69.715 126.71-69.707 15.828-0.019531 31.559 2.4883 46.594 7.4297-30.863 48.141-47.238 104.14-47.18 161.32v93.75c0 0.32812 0.046876 0.63281 0.070313 0.96094zm56.766 92.789h-9.9609c-7.457-0.011719-14.605-2.9766-19.875-8.25-5.2734-5.2695-8.2383-12.418-8.25-19.875v-18.75c0.011719-7.457 2.9766-14.605 8.25-19.875 5.2695-5.2734 12.418-8.2383 19.875-8.25h9.9609zm0-131.25v18.75h-9.9609c-3.1367 0-6.2695 0.23047-9.375 0.67969v-75.68c0-69.621 27.656-136.39 76.883-185.62 49.23-49.227 116-76.883 185.62-76.883 69.621 0 136.39 27.656 185.62 76.883 49.227 49.23 76.883 116 76.883 185.62v75.68c-3.1055-0.45313-6.2383-0.67969-9.375-0.67969h-8.7891v-18.75c0-4.9727-1.9766-9.7422-5.4922-13.258-3.5156-3.5156-8.2852-5.4922-13.258-5.4922-119.81 0-208.88-122.18-209.74-123.4-3.8203-5.3555-10.168-8.3203-16.73-7.8047-6.5586 0.51172-12.367 4.4258-15.309 10.312-50.93 101.88-208.71 120.82-210.28 121.01-4.5898 0.50391-8.8281 2.6836-11.91 6.1211-3.0781 3.4414-4.7812 7.8945-4.7773 12.512zm37.5 16.125c42.047-7.4531 151.92-34.031 208.57-114.8 15.066 17.113 31.461 33.004 49.031 47.531 49.57 40.805 102.75 64.453 154.9 69.07v113.32h-412.5zm0.86719 152.62h410.77c-4.6758 51.242-28.336 98.883-66.336 133.57-38 34.688-87.594 53.922-139.05 53.922s-101.05-19.234-139.05-53.922c-38-34.691-61.66-82.332-66.336-133.57zm329.93 284.91-121.38 69.375-114.28-80.555c11.148-12.098 17.348-27.941 17.367-44.391v-23.086c29.707 12.379 61.57 18.75 93.75 18.75s64.043-6.3711 93.75-18.75v23.086c0.03125 22.586 11.66 43.574 30.797 55.57zm-537.05 352.59v-129.84c0.039062-34.902 10.883-68.938 31.043-97.43 20.16-28.492 48.648-50.039 81.551-61.688l153.14-54.047 113.98 80.32-70.266 40.148c-3.5898 2.0625-6.3984 5.25-7.9922 9.0703l-88.945 213.47zm825 0h-571.88l80.484-193.15 248.3-141.89 130.5 46.078c32.902 11.648 61.391 33.195 81.551 61.688 20.16 28.492 31.004 62.527 31.043 97.43z"/>
 <path d="m487.5 412.5c-4.9727 0-9.7422 1.9766-13.258 5.4922-3.5156 3.5156-5.4922 8.2852-5.4922 13.258v18.75c0 6.6992 3.5742 12.887 9.375 16.238 5.8008 3.3477 12.949 3.3477 18.75 0 5.8008-3.3516 9.375-9.5391 9.375-16.238v-18.75c0-4.9727-1.9766-9.7422-5.4922-13.258-3.5156-3.5156-8.2852-5.4922-13.258-5.4922z"/>
 <path d="m712.5 468.75c4.9727 0 9.7422-1.9766 13.258-5.4922 3.5156-3.5156 5.4922-8.2852 5.4922-13.258v-18.75c0-6.6992-3.5742-12.887-9.375-16.238-5.8008-3.3477-12.949-3.3477-18.75 0-5.8008 3.3516-9.375 9.5391-9.375 16.238v18.75c0 4.9727 1.9766 9.7422 5.4922 13.258 3.5156 3.5156 8.2852 5.4922 13.258 5.4922z"/>
 <path d="m862.5 1050h-37.5v-37.5c0-6.6992-3.5742-12.887-9.375-16.238-5.8008-3.3477-12.949-3.3477-18.75 0-5.8008 3.3516-9.375 9.5391-9.375 16.238v37.5h-37.5c-6.6992 0-12.887 3.5742-16.238 9.375-3.3477 5.8008-3.3477 12.949 0 18.75 3.3516 5.8008 9.5391 9.375 16.238 9.375h37.5v37.5c0 6.6992 3.5742 12.887 9.375 16.238 5.8008 3.3477 12.949 3.3477 18.75 0 5.8008-3.3516 9.375-9.5391 9.375-16.238v-37.5h37.5c6.6992 0 12.887-3.5742 16.238-9.375 3.3477-5.8008 3.3477-12.949 0-18.75-3.3516-5.8008-9.5391-9.375-16.238-9.375z"/>
</svg>
