<?xml version="1.0" encoding="UTF-8"?>
<svg width="1200pt" height="1200pt" version="1.1" viewBox="0 0 1200 1200" xmlns="http://www.w3.org/2000/svg">
 <path d="m487.5 468.75c4.9727 0 9.7422-1.9766 13.258-5.4922 3.5156-3.5156 5.4922-8.2852 5.4922-13.258v-18.75c0-6.6992-3.5742-12.887-9.375-16.238-5.8008-3.3477-12.949-3.3477-18.75 0-5.8008 3.3516-9.375 9.5391-9.375 16.238v18.75c0 4.9727 1.9766 9.7422 5.4922 13.258 3.5156 3.5156 8.2852 5.4922 13.258 5.4922z"/>
 <path d="m712.5 468.75c4.9727 0 9.7422-1.9766 13.258-5.4922 3.5156-3.5156 5.4922-8.2852 5.4922-13.258v-18.75c0-6.6992-3.5742-12.887-9.375-16.238-5.8008-3.3477-12.949-3.3477-18.75 0-5.8008 3.3516-9.375 9.5391-9.375 16.238v18.75c0 4.9727 1.9766 9.7422 5.4922 13.258 3.5156 3.5156 8.2852 5.4922 13.258 5.4922z"/>
 <path d="m600 618.87c26.633 0 53.27-8.1211 69.508-24.359v-0.003907c4.7383-4.7344 6.5859-11.641 4.8555-18.109-1.7344-6.4727-6.7891-11.527-13.262-13.262-6.4688-1.7305-13.375 0.11719-18.109 4.8555-17.68 17.68-68.305 17.68-85.984 0-4.7344-4.7383-11.641-6.5859-18.109-4.8555-6.4727 1.7344-11.527 6.7891-13.262 13.262-1.7305 6.4688 0.11719 13.375 4.8555 18.109 16.238 16.242 42.875 24.363 69.508 24.363z"/>
 <path d="m918.75 840.56v-521.81c0-175.76-142.99-318.75-318.75-318.75s-318.75 142.99-318.75 318.75v521.81c-38.641 15.129-71.832 41.547-95.242 75.812-23.41 34.262-35.957 74.785-36.008 116.28v148.59c0 4.9727 1.9766 9.7422 5.4922 13.258 3.5156 3.5156 8.2852 5.4922 13.258 5.4922h862.5c4.9727 0 9.7422-1.9766 13.258-5.4922 3.5156-3.5156 5.4922-8.2852 5.4922-13.258v-148.59c-0.050781-41.496-12.598-82.02-36.008-116.28-23.41-34.266-56.602-60.684-95.242-75.812zm-600-521.81c0-74.594 29.633-146.13 82.375-198.88 52.746-52.742 124.28-82.375 198.88-82.375s146.13 29.633 198.88 82.375c52.742 52.746 82.375 124.28 82.375 198.88v508.43l-37.5-13.242v-504.56c-0.019531-17.398-6.9375-34.078-19.242-46.383-12.305-12.305-28.984-19.223-46.383-19.242h-356.25c-17.398 0.019531-34.078 6.9375-46.383 19.242-12.305 12.305-19.223 28.984-19.242 46.383v504.56l-37.5 13.242zm281.25 393.75c-54.684-0.0625-107.11-21.812-145.77-60.477-38.664-38.668-60.414-91.09-60.477-145.77v-131.25h412.5v131.25c-0.0625 54.684-21.812 107.11-60.477 145.77-38.668 38.664-91.09 60.414-145.77 60.477zm206.25-76.5v164.7l-56.227-19.828c-5.4844-1.9414-10.234-5.5352-13.598-10.285-3.3594-4.75-5.168-10.426-5.1758-16.246v-42.773c30.227-19.398 55.828-45.191 75-75.562zm-79.383 175.29c-15.07 40.172-67.406 69.961-126.87 69.961s-111.8-29.789-126.87-69.961c10.043-5.7383 18.395-14.027 24.211-24.027s8.8867-21.359 8.9062-32.926v-23.086c29.707 12.379 61.57 18.75 93.75 18.75s64.043-6.3711 93.75-18.75v23.086c0.019531 11.566 3.0898 22.926 8.9062 32.926s14.168 18.289 24.211 24.027zm-258.12-99.727v42.773c-0.007812 5.8203-1.8164 11.496-5.1758 16.246-3.3633 4.75-8.1133 8.3438-13.598 10.285l-56.227 19.828v-164.7c19.172 30.371 44.773 56.164 75 75.562zm-75-374.06v-28.125c0.007812-7.457 2.9727-14.605 8.2461-19.879 5.2734-5.2734 12.422-8.2383 19.879-8.2461h356.25c7.457 0.007812 14.605 2.9727 19.879 8.2461 5.2734 5.2734 8.2383 12.422 8.2461 19.879v28.125zm-93.656 536.04 138.07-48.75c20.719 54.844 85.945 93.961 161.84 93.961s141.12-39.117 161.84-93.961l138.07 48.75c6.4414 2.2617 12.734 4.9219 18.844 7.9688-0.11719 48.211-32.016 94.219-89.883 129.59-60.844 37.172-142.12 57.656-228.87 57.656s-168.02-20.484-228.87-57.656c-57.867-35.367-89.766-81.375-89.883-129.59 6.1094-3.0469 12.402-5.707 18.844-7.9688zm712.41 288.96h-825v-129.84c0.027344-24.168 5.2383-48.051 15.281-70.031 10.043-21.984 24.684-41.555 42.938-57.398 8.5781 52.641 45.398 100.92 105.84 137.86 66.656 40.734 154.88 63.164 248.44 63.164s181.78-22.43 248.44-63.164c60.445-36.938 97.266-85.219 105.84-137.86 18.254 15.844 32.895 35.414 42.938 57.398 10.043 21.98 15.254 45.863 15.281 70.031z"/>
 <path d="m562.5 993.75h18.75v37.5c0 6.6992 3.5742 12.887 9.375 16.238 5.8008 3.3477 12.949 3.3477 18.75 0 5.8008-3.3516 9.375-9.5391 9.375-16.238v-37.5h18.75c6.6992 0 12.887-3.5742 16.238-9.375 3.3477-5.8008 3.3477-12.949 0-18.75-3.3516-5.8008-9.5391-9.375-16.238-9.375h-18.75c0-6.6992-3.5742-12.887-9.375-16.238-5.8008-3.3477-12.949-3.3477-18.75 0-5.8008 3.3516-9.375 9.5391-9.375 16.238h-18.75c-6.6992 0-12.887 3.5742-16.238 9.375-3.3477 5.8008-3.3477 12.949 0 18.75 3.3516 5.8008 9.5391 9.375 16.238 9.375z"/>
</svg>
