<?xml version="1.0" encoding="UTF-8"?>
<svg width="1200pt" height="1200pt" version="1.1" viewBox="0 0 1200 1200" xmlns="http://www.w3.org/2000/svg">
 <path d="m940.13 839.53-188.76-42.75c-10.406-2.3438-17.625-11.438-17.625-22.125l-0.09375-66.234c64.781-46.875 107.91-126.74 109.27-217.6 59.531-74.344 81.844-139.03 66.141-192.37-15.797-53.672-64.828-77.625-81.188-84.234-10.219-21.141-56.953-94.266-214.92-94.266-106.31 0-235.13 39.891-283.4 129.05-22.547 41.625-35.719 111.84 27.469 210.61v26.953c0 91.453 42.422 172.26 106.88 220.13l0.09375 68.109c0 10.641-7.2188 19.688-17.578 22.078l-186 42.656c-90.375 19.547-121.5 101.16-132 148.08-5.25 23.531-8.3438 68.859-8.4375 80.25-0.046875 3.1875 1.2188 6.2812 3.4688 8.5312 2.25 2.2969 5.3438 3.5625 8.5312 3.5625h936.24c3.1875 0 6.2812-1.2656 8.5312-3.5625 2.25-2.25 3.5156-5.3438 3.4688-8.5312-0.09375-11.625-3.0469-57.234-8.2031-80.297-10.5-46.922-41.625-128.53-131.9-148.08zm-589.45-579.1c43.312-80.016 166.31-116.44 262.26-116.44 162.37 0 193.4 80.297 194.58 83.625 1.2188 3.5156 4.0312 6.2812 7.5938 7.5 0.5625 0.1875 55.969 19.125 70.922 70.359 11.578 39.656-2.9062 88.5-43.078 145.5v-59.438c0-4.2656-2.2969-8.25-6-10.406-1.875-1.0781-3.9375-1.5938-6-1.5938s-4.125 0.51562-5.9531 1.5938c-89.156 51.141-176.76 50.531-260.44-1.7344-63.469-39.656-100.97-95.719-101.34-96.281-2.3438-3.5156-6.375-5.4844-10.594-5.3906-66.797 3.1406-86.953 86.859-93 138.61-30.094-58.969-33.141-111.28-9-155.86zm30.375 226.13v-30.328c0-1.4531 1.6875-142.26 66.469-153.84 20.531 27.703 112.27 140.34 247.6 140.34 38.062 0 79.547-8.9062 123.84-31.125v74.953c0 133.36-98.25 241.87-218.95 241.87-120.74 0-218.95-108.47-218.95-241.87zm218.95 265.82c39.422 0 76.688-10.406 109.64-28.734l0.09375 51.047c0 10.969 3.75 21.094 10.125 29.109-28.031 37.875-71.953 60.469-119.3 60.469-48.422 0-93.141-23.484-121.03-62.766 5.3438-7.6406 8.5312-16.828 8.5312-26.719l-0.09375-52.453c33.562 19.172 71.672 30.094 112.08 30.094zm-455.48 303.61c1.125-18.047 3.8438-47.531 7.3125-63.141 9.2344-41.344 36.281-113.16 113.81-129.89l186.14-42.703c3.1875-0.75 6.1875-1.875 9.0938-3.1875 32.484 44.719 84 71.203 139.64 71.203 55.078 0 106.08-26.25 138.61-70.266 2.25 0.89062 4.5 1.6406 6.9375 2.2031l188.9 42.797c77.344 16.734 104.44 88.547 113.67 129.89 3.4688 15.609 6.1406 45 7.1719 63.141z"/>
</svg>
