<?xml version="1.0" encoding="UTF-8" standalone="no"?>
<!DOCTYPE svg PUBLIC "-//W3C//DTD SVG 1.1//EN" "http://www.w3.org/Graphics/SVG/1.1/DTD/svg11.dtd">
<svg width="100%" height="100%" viewBox="0 0 1200 1200" version="1.1" xmlns="http://www.w3.org/2000/svg" xmlns:xlink="http://www.w3.org/1999/xlink" xml:space="preserve" xmlns:serif="http://www.serif.com/" style="fill-rule:evenodd;clip-rule:evenodd;stroke-linejoin:round;stroke-miterlimit:2;">
    <g transform="matrix(1,0,0,1,150,0)">
        <path d="M858.89,897.98C832.359,862.328 794.941,836.281 752.3,823.777L632.16,783.183L615.613,758.339C612.754,754.05 608.254,751.128 603.172,750.257C598.09,749.39 592.875,750.652 588.754,753.745L582.004,758.808C581.508,756.718 581.258,754.581 581.254,752.433L581.254,746.761L749.044,719.081C765.021,716.475 779.47,708.046 789.595,695.417C799.724,682.784 804.814,666.855 803.888,650.69L785.372,317.24C780.606,231.517 743.196,150.88 680.822,91.88C618.451,32.88 535.862,0.005 450.002,0.005C364.142,0.005 281.552,32.88 219.182,91.88C156.811,150.88 119.401,231.52 114.632,317.24L96.116,650.69C95.19,666.854 100.28,682.784 110.409,695.417C120.534,708.046 134.983,716.476 150.96,719.081L318.75,746.761L318.75,752.433C318.746,754.581 318.496,756.718 318,758.808L311.25,753.745C307.129,750.651 301.914,749.39 296.832,750.257C291.75,751.128 287.25,754.05 284.391,758.339L267.844,783.183L147.704,823.777C105.048,836.406 67.622,862.484 41.004,898.125C14.387,933.766 0.004,977.059 0.004,1021.55L0.004,1181.25C0.004,1186.22 1.981,1190.99 5.496,1194.5C9.012,1198.02 13.781,1200 18.754,1200L881.254,1200C886.227,1200 890.996,1198.02 894.512,1194.5C898.028,1190.99 900.004,1186.22 900.004,1181.25L900.004,1021.55C900.11,976.983 885.676,933.6 858.895,897.985L858.89,897.98ZM37.5,1162.5L37.5,1021.55C37.645,985.14 49.504,949.741 71.32,920.59C93.136,891.438 123.754,870.082 158.648,859.672C158.882,859.578 159.117,859.508 159.351,859.438L212.695,841.415L135,945.005C132.672,948.106 131.36,951.856 131.25,955.735C131.141,959.614 132.238,963.43 134.391,966.661L264.961,1162.5L37.5,1162.5ZM172.97,956.88L248.626,855.98L273.845,1108.21L172.97,956.88ZM157.056,682.1C150.208,680.979 144.017,677.362 139.677,671.948C135.337,666.538 133.154,659.706 133.548,652.78L152.087,319.33C156.318,243.178 189.548,171.54 244.954,119.13C300.36,66.716 373.734,37.509 450.004,37.509C526.274,37.509 599.644,66.716 655.054,119.13C710.46,171.54 743.691,243.18 747.921,319.33L766.46,652.78C766.855,659.706 764.671,666.538 760.331,671.948C755.991,677.362 749.8,680.979 742.952,682.1L586.882,707.834C619.792,685.506 646.737,655.459 665.37,620.322C683.999,585.181 693.745,546.017 693.757,506.252L693.757,375.002C693.757,370.029 691.781,365.26 688.265,361.744C684.749,358.228 679.98,356.252 675.007,356.252L576.64,356.252L543.031,238.592C541.64,233.717 538.336,229.615 533.871,227.217C529.406,224.818 524.156,224.33 519.328,225.865C514.496,227.396 510.492,230.822 508.226,235.357C481.765,288.279 473.046,332.482 470.164,356.247L225.004,356.247C220.031,356.247 215.262,358.224 211.746,361.74C208.23,365.255 206.254,370.025 206.254,374.998L206.254,506.248C206.265,546.018 216.011,585.182 234.641,620.318C253.274,655.455 280.219,685.502 313.129,707.83L157.056,682.1ZM243.751,506.25L243.751,393.75L487.501,393.75C492.462,393.734 497.212,391.762 500.724,388.258C504.236,384.754 506.224,380.008 506.251,375.047C506.251,374.672 506.673,344.695 521.649,300.305L544.477,380.157C545.598,384.071 547.962,387.516 551.216,389.969C554.466,392.422 558.427,393.751 562.501,393.751L656.251,393.751L656.251,506.251C656.251,560.949 634.521,613.411 595.841,652.091C557.161,690.771 504.7,712.501 450.001,712.501C395.302,712.501 342.841,690.771 304.161,652.091C265.481,613.411 243.751,560.95 243.751,506.251L243.751,506.25ZM304.618,795.63L416.438,879.513L360.376,913.146L285.868,823.755L304.618,795.63ZM431.248,1162.5L316.968,1162.5L289.359,886.52L341.836,949.497C344.703,952.934 348.703,955.235 353.117,955.981C357.531,956.731 362.066,955.876 365.906,953.575L431.25,914.364L431.248,1162.5ZM349.1,782.13C353.788,772.931 356.237,762.759 356.248,752.435L356.248,731.247C385.955,743.626 417.818,749.997 449.998,749.997C482.178,749.997 514.041,743.626 543.748,731.247L543.748,752.435C543.76,762.759 546.209,772.931 550.897,782.13L449.997,857.81L349.1,782.13ZM580.8,1162.5L468.75,1162.5L468.75,914.37L534.094,953.581C537.934,955.882 542.469,956.737 546.883,955.987C551.297,955.241 555.297,952.94 558.164,949.503L610.031,887.253L580.8,1162.5ZM539.62,913.15L483.558,879.517L595.378,795.634L614.128,823.759L539.62,913.15ZM651.11,855.634L726.977,956.814L624.227,1108.54L651.11,855.634ZM862.49,1162.5L632.99,1162.5L765.51,966.774C767.705,963.543 768.834,959.708 768.741,955.805C768.651,951.899 767.338,948.121 764.994,945L687.299,841.41L740.643,859.433C740.878,859.503 741.112,859.574 741.347,859.667C776.242,870.077 806.859,891.433 828.675,920.585C850.491,949.741 862.351,985.14 862.495,1021.55L862.49,1162.5Z" style="fill-rule:nonzero;"/>
    </g>
    <g transform="matrix(1,0,0,1,150,0)">
        <path d="M337.5,412.5C332.527,412.5 327.758,414.477 324.242,417.992C320.726,421.508 318.75,426.277 318.75,431.25L318.75,450C318.75,456.699 322.324,462.887 328.125,466.238C333.926,469.586 341.074,469.586 346.875,466.238C352.676,462.887 356.25,456.699 356.25,450L356.25,431.25C356.25,426.278 354.273,421.508 350.758,417.992C347.242,414.477 342.472,412.5 337.5,412.5L337.5,412.5Z" style="fill-rule:nonzero;"/>
    </g>
    <g transform="matrix(1,0,0,1,150,0)">
        <path d="M562.5,412.5C557.527,412.5 552.758,414.477 549.242,417.992C545.726,421.508 543.75,426.277 543.75,431.25L543.75,450C543.75,456.699 547.324,462.887 553.125,466.238C558.926,469.586 566.074,469.586 571.875,466.238C577.676,462.887 581.25,456.699 581.25,450L581.25,431.25C581.25,426.278 579.273,421.508 575.758,417.992C572.242,414.477 567.472,412.5 562.5,412.5L562.5,412.5Z" style="fill-rule:nonzero;"/>
    </g>
    <g transform="matrix(1,0,0,1,150,0)">
        <path d="M492.99,586.74C475.306,604.42 424.685,604.42 407.002,586.74L407.006,586.74C403.502,583.158 398.713,581.127 393.701,581.099C388.693,581.072 383.881,583.049 380.342,586.592C376.799,590.135 374.822,594.947 374.85,599.955C374.877,604.966 376.908,609.755 380.49,613.256C396.728,629.494 423.361,637.615 449.998,637.615C476.631,637.615 503.268,629.497 519.506,613.256C523.088,609.756 525.12,604.967 525.147,599.955C525.174,594.947 523.198,590.134 519.655,586.592C516.116,583.049 511.303,581.072 506.296,581.099C501.284,581.127 496.495,583.158 492.991,586.74L492.99,586.74Z" style="fill-rule:nonzero;"/>
    </g>
</svg>
