<?xml version="1.0" encoding="UTF-8" standalone="no"?>
<!DOCTYPE svg PUBLIC "-//W3C//DTD SVG 1.1//EN" "http://www.w3.org/Graphics/SVG/1.1/DTD/svg11.dtd">
<svg width="100%" height="100%" viewBox="0 0 1200 1200" version="1.1" xmlns="http://www.w3.org/2000/svg" xmlns:xlink="http://www.w3.org/1999/xlink" xml:space="preserve" xmlns:serif="http://www.serif.com/" style="fill-rule:evenodd;clip-rule:evenodd;stroke-linejoin:round;stroke-miterlimit:2;">
    <g transform="matrix(1,0,0,1,131,0)">
        <path d="M896.39,897.98C869.777,862.234 832.23,836.148 789.44,823.683L650.67,782.855L634.358,758.339C631.491,754.054 626.995,751.132 621.913,750.253C620.866,750.093 619.807,750.015 618.749,750.019L618.749,702.792C648.237,682.241 673.194,655.858 692.081,625.276C710.968,594.694 723.382,560.565 728.554,524.996L740.624,524.996C758.022,524.976 774.702,518.058 787.007,505.754C799.312,493.449 806.23,476.77 806.249,459.371L806.249,440.621C806.225,424.848 800.53,409.609 790.206,397.683C779.878,385.761 765.608,377.949 749.999,375.675L749.999,281.245C749.999,206.651 720.366,135.115 667.624,82.365C614.878,29.623 543.344,-0.01 468.744,-0.01C394.144,-0.01 322.614,29.623 269.864,82.365C217.122,135.111 187.489,206.645 187.489,281.245L187.489,375.675C171.88,377.948 157.61,385.761 147.282,397.683C136.958,409.609 131.262,424.847 131.239,440.621L131.239,459.371C131.258,476.769 138.176,493.449 150.481,505.754C162.786,518.059 179.465,524.977 196.864,524.996L208.934,524.996C214.106,560.566 226.52,594.695 245.407,625.276C264.294,655.857 289.251,682.241 318.739,702.792L318.739,750.019C317.68,750.015 316.622,750.093 315.575,750.253C310.493,751.132 305.997,754.054 303.13,758.339L286.818,782.855L148.048,823.66C105.31,836.234 67.794,862.305 41.108,897.976C14.42,933.644 -0.001,976.996 -0.005,1021.55L-0.005,1181.25C-0.005,1186.22 1.971,1190.99 5.487,1194.5C9.003,1198.02 13.772,1200 18.745,1200L918.745,1200C923.718,1200 928.487,1198.02 932.003,1194.5C935.519,1190.99 937.495,1186.22 937.495,1181.25L937.495,1021.55C937.601,976.984 923.167,933.601 896.386,897.986L896.39,897.98ZM731.25,412.5L740.625,412.5C748.082,412.508 755.23,415.473 760.504,420.746C765.777,426.02 768.742,433.168 768.75,440.625L768.75,459.375C768.742,466.832 765.777,473.98 760.504,479.254C755.231,484.528 748.082,487.492 740.625,487.5L731.25,487.5L731.25,412.5ZM206.25,487.5L196.875,487.5C189.418,487.492 182.27,484.527 176.996,479.254C171.723,473.981 168.758,466.832 168.75,459.375L168.75,440.625C168.758,433.168 171.723,426.02 176.996,420.746C182.269,415.472 189.418,412.508 196.875,412.5L206.25,412.5L206.25,487.5ZM632.88,823.76L558.372,913.151L502.31,879.518L614.13,795.635L632.88,823.76ZM584.06,771.33L468.75,857.814L353.44,771.33C355.303,765.205 356.252,758.842 356.252,752.439L356.252,724.642C391.404,741.337 429.834,750.001 468.752,750.001C507.67,750.001 546.1,741.337 581.252,724.642L581.252,752.439C581.252,758.841 582.202,765.205 584.065,771.33L584.06,771.33ZM508.591,927.03L522.653,986.139L468.747,1026.57L414.841,986.139L428.903,927.03L468.747,903.124L508.591,927.03ZM225.001,375.01L225.001,281.26C225.001,216.612 250.681,154.62 296.396,108.9C342.107,63.185 404.106,37.505 468.756,37.505C533.406,37.505 595.396,63.185 641.116,108.9C686.831,154.611 712.511,216.61 712.511,281.26L712.511,375.01C707.538,375.002 702.777,373.026 699.261,369.51C695.745,365.994 693.769,361.233 693.761,356.26L693.761,241.42C693.769,235.842 691.288,230.553 686.995,226.99C682.703,223.427 677.046,221.963 671.565,222.998L259.065,300.342C254.765,301.146 250.882,303.428 248.088,306.791C245.292,310.154 243.764,314.389 243.76,318.764L243.76,356.264C243.752,361.237 241.776,365.998 238.26,369.514C234.745,373.03 229.983,375.006 225.01,375.014L225.001,375.01ZM243.751,487.51L243.751,409.276C254.708,405.389 264.196,398.21 270.911,388.717C277.626,379.225 281.235,367.885 281.251,356.26L281.251,334.322L656.251,264.01L656.251,356.26C656.267,367.885 659.876,379.225 666.591,388.717C673.306,398.209 682.794,405.389 693.751,409.276L693.751,487.51C693.751,547.182 670.044,604.41 627.849,646.61C585.654,688.805 528.423,712.512 468.749,712.512C409.075,712.512 351.849,688.805 309.649,646.61C267.454,604.415 243.747,547.184 243.747,487.51L243.751,487.51ZM323.368,795.64L435.188,879.523L379.126,913.156L304.618,823.765L323.368,795.64ZM359.954,1162.51L37.504,1162.51L37.504,1021.56C37.652,985.146 49.512,949.748 71.328,920.59C93.144,891.434 123.758,870.067 158.652,859.652L262.922,828.972C263.567,831.925 264.91,834.683 266.836,837.011L360.586,949.511C364.153,953.785 369.434,956.257 375,956.261C378.133,956.257 381.211,955.456 383.953,953.941L375.516,989.425C374.668,992.98 374.875,996.702 376.117,1000.14C377.356,1003.57 379.574,1006.57 382.5,1008.76L392.461,1016.24L359.954,1162.51ZM398.368,1162.51L425.391,1040.94L457.5,1065.01C460.746,1067.44 464.691,1068.76 468.75,1068.76C472.809,1068.76 476.754,1067.44 480,1065.01L512.109,1040.94L539.132,1162.51L398.368,1162.51ZM768.748,1162.51L656.248,1162.51L656.248,1087.51L768.748,1087.51L768.748,1162.51ZM899.998,1162.51L806.248,1162.51L806.248,1068.76C806.248,1063.79 804.271,1059.02 800.756,1055.5C797.24,1051.99 792.471,1050.01 787.498,1050.01L637.498,1050.01C632.525,1050.01 627.756,1051.99 624.24,1055.5C620.724,1059.02 618.748,1063.79 618.748,1068.76L618.748,1162.51L577.545,1162.51L545.037,1016.24L554.997,1008.76C557.923,1006.57 560.142,1003.58 561.38,1000.14C562.622,996.705 562.829,992.982 561.982,989.427L553.544,953.943C556.287,955.459 559.365,956.26 562.497,956.264C568.064,956.26 573.345,953.787 576.911,949.514L670.661,837.014C672.587,834.686 673.931,831.928 674.576,828.975L778.846,859.678C813.741,870.088 844.358,891.444 866.174,920.596C887.99,949.752 899.85,985.151 899.994,1021.56L899.998,1162.51Z" style="fill-rule:nonzero;"/>
    </g>
    <g transform="matrix(1,0,0,1,131,0)">
        <path d="M543.75,600C543.75,595.027 541.773,590.258 538.258,586.742C534.742,583.226 529.973,581.25 525,581.25L412.5,581.25C405.801,581.25 399.613,584.824 396.262,590.625C392.914,596.426 392.914,603.574 396.262,609.375C399.613,615.176 405.801,618.75 412.5,618.75L525,618.75C529.973,618.75 534.742,616.773 538.258,613.258C541.773,609.742 543.75,604.972 543.75,600L543.75,600Z" style="fill-rule:nonzero;"/>
    </g>
    <g transform="matrix(1,0,0,1,131,0)">
        <path d="M356.25,412.5C351.277,412.5 346.508,414.477 342.992,417.992C339.476,421.508 337.5,426.277 337.5,431.25L337.5,450C337.5,456.699 341.074,462.887 346.875,466.238C352.676,469.586 359.824,469.586 365.625,466.238C371.426,462.887 375,456.699 375,450L375,431.25C375,426.278 373.023,421.508 369.508,417.992C365.992,414.477 361.222,412.5 356.25,412.5L356.25,412.5Z" style="fill-rule:nonzero;"/>
    </g>
    <g transform="matrix(1,0,0,1,131,0)">
        <path d="M581.25,412.5C576.277,412.5 571.508,414.477 567.992,417.992C564.476,421.508 562.5,426.277 562.5,431.25L562.5,450C562.5,456.699 566.074,462.887 571.875,466.238C577.676,469.586 584.824,469.586 590.625,466.238C596.426,462.887 600,456.699 600,450L600,431.25C600,426.278 598.023,421.508 594.508,417.992C590.992,414.477 586.222,412.5 581.25,412.5L581.25,412.5Z" style="fill-rule:nonzero;"/>
    </g>
    <g transform="matrix(1,0,0,1,131,0)">
        <path d="M393.75,393.75C400.449,393.75 406.637,390.176 409.988,384.375C413.336,378.574 413.336,371.426 409.988,365.625C406.636,359.824 400.449,356.25 393.75,356.25L337.5,356.25C330.801,356.25 324.613,359.824 321.262,365.625C317.914,371.426 317.914,378.574 321.262,384.375C324.614,390.176 330.801,393.75 337.5,393.75L393.75,393.75Z" style="fill-rule:nonzero;"/>
    </g>
    <g transform="matrix(1,0,0,1,131,0)">
        <path d="M543.75,393.75L600,393.75C606.699,393.75 612.887,390.176 616.238,384.375C619.586,378.574 619.586,371.426 616.238,365.625C612.886,359.824 606.699,356.25 600,356.25L543.75,356.25C537.051,356.25 530.863,359.824 527.512,365.625C524.164,371.426 524.164,378.574 527.512,384.375C530.864,390.176 537.051,393.75 543.75,393.75Z" style="fill-rule:nonzero;"/>
    </g>
</svg>
