<?xml version="1.0" encoding="UTF-8"?>
<svg width="1200pt" height="1200pt" version="1.1" viewBox="0 0 1200 1200" xmlns="http://www.w3.org/2000/svg">
 <path d="m1027.6 897.98c-26.613-35.746-64.16-61.832-106.95-74.297l-150.52-44.297c-5.8086-1.7344-10.91-5.2891-14.543-10.141-3.6328-4.8555-5.6094-10.75-5.6367-16.812v-49.641c48.695-33.984 84.48-83.422 101.55-140.3h48.445c4.9727 0 9.7422-1.9766 13.258-5.4922 3.5156-3.5156 5.4922-8.2852 5.4922-13.258h28.125c12.43-0.011719 24.344-4.9531 33.133-13.742 8.7891-8.7891 13.73-20.703 13.742-33.133v-75c-0.011719-14.727-6.957-28.586-18.75-37.406v-28.219c0-196.43-159.82-356.25-356.25-356.25h-37.5c-196.43 0-356.25 159.82-356.25 356.25v28.219c-11.793 8.8203-18.738 22.68-18.75 37.406v75c0.011719 12.43 4.9531 24.344 13.742 33.133 8.7891 8.7891 20.703 13.73 33.133 13.742h28.125c0 4.9727 1.9766 9.7422 5.4922 13.258 3.5156 3.5156 8.2852 5.4922 13.258 5.4922v75c0 4.9727 1.9766 9.7422 5.4922 13.258 3.5156 3.5156 8.2852 5.4922 13.258 5.4922h80.344c14.871 17.664 31.984 33.312 50.906 46.547v49.641c-0.027344 6.0664-2.0039 11.965-5.6445 16.816-3.6367 4.8555-8.7422 8.4102-14.559 10.137l-150.49 44.297c-42.738 12.566-80.258 38.633-106.95 74.297-26.688 35.668-41.113 79.016-41.109 123.56v159.7c0 4.9727 1.9766 9.7422 5.4922 13.258 3.5156 3.5156 8.2852 5.4922 13.258 5.4922h900c4.9727 0 9.7422-1.9766 13.258-5.4922 3.5156-3.5156 5.4922-8.2852 5.4922-13.258v-159.7c0.10547-44.562-14.328-87.945-41.109-123.56zm-146.39-372.98h-18.75v-131.25h18.75zm75-103.12v75c0 2.4883-0.98828 4.8711-2.7461 6.6289-1.7578 1.7578-4.1406 2.7461-6.6289 2.7461h-28.125v-93.75h28.125c2.4883 0 4.8711 0.98828 6.6289 2.7461 1.7578 1.7578 2.7461 4.1406 2.7461 6.6289zm-18.75-65.625v18.75h-18.75c0-4.9727-1.9766-9.7422-5.4922-13.258-3.5156-3.5156-8.2852-5.4922-13.258-5.4922v-56.25c0.066406-55.32-15.254-109.57-44.25-156.68 52.68 58.402 81.812 134.28 81.75 212.93zm-337.5-318.75c69.598 0.078125 136.32 27.758 185.53 76.969s76.891 115.93 76.969 185.53v56.25h-9.375c-7.457-0.007812-14.605-2.9727-19.879-8.2461-5.2734-5.2734-8.2383-12.422-8.2461-19.879-0.019531-17.398-6.9375-34.078-19.242-46.383-12.305-12.305-28.984-19.223-46.383-19.242h-318.75c-17.398 0.019531-34.078 6.9375-46.383 19.242-12.305 12.305-19.223 28.984-19.242 46.383-0.007812 7.457-2.9727 14.605-8.2461 19.879-5.2734 5.2734-12.422 8.2383-19.879 8.2461h-9.375v-56.25c0.078125-69.598 27.758-136.32 76.969-185.53s115.93-76.891 185.53-76.969zm-318.75 468.75h-28.125c-5.1758 0-9.375-4.1992-9.375-9.375v-75c0-5.1758 4.1992-9.375 9.375-9.375h28.125zm18.75-206.25v56.25c-4.9727 0-9.7422 1.9766-13.258 5.4922-3.5156 3.5156-5.4922 8.2852-5.4922 13.258h-18.75v-18.75c-0.0625-78.652 29.07-154.53 81.75-212.93-28.996 47.113-44.316 101.36-44.25 156.68zm18.75 93.75h18.75v131.25h-18.75zm18.75 225v-56.25h10.945c5.8594 19.637 14.008 38.52 24.281 56.25zm79.852 0c-27.578-38.203-42.398-84.133-42.352-131.25v-100.1c11.211-5.3281 20.688-13.723 27.324-24.211 6.6367-10.492 10.164-22.648 10.176-35.062 0.007812-7.457 2.9727-14.605 8.2461-19.879 5.2734-5.2734 12.422-8.2383 19.879-8.2461h318.75c7.457 0.007812 14.605 2.9727 19.879 8.2461 5.2734 5.2734 8.2383 12.422 8.2461 19.879 0.011719 12.414 3.5391 24.57 10.176 35.062 6.6367 10.488 16.113 18.883 27.324 24.211v100.1c0.035156 58.035-22.367 113.84-62.523 155.73-40.16 41.898-94.957 66.648-152.94 69.074-57.984 2.4258-114.66-17.66-158.18-56.055h17.391c6.6992 0 12.887-3.5742 16.238-9.375 3.3477-5.8008 3.3477-12.949 0-18.75-3.3516-5.8008-9.5391-9.375-16.238-9.375zm126.4 543.75h-375v-140.95c0.14453-36.41 12.004-71.809 33.82-100.96 21.816-29.152 52.434-50.508 87.328-60.918l147.73-43.477c7.8281 32.93 22.711 59.789 44.461 80.016 17.508 16.062 38.676 27.598 61.664 33.609zm75 0h-37.5v-225h37.5zm-18.75-263.11c-39.422 0-70.5-10.312-92.367-30.633-18.75-17.438-30.82-42.234-36-73.734 10.188-11.855 15.816-26.953 15.867-42.586v-27.797c35.152 16.695 73.582 25.359 112.5 25.359s77.348-8.6641 112.5-25.359v27.797c0.050781 15.633 5.6797 30.73 15.867 42.586-5.1797 31.5-17.25 56.297-36 73.734-21.867 20.32-52.945 30.633-92.367 30.633zm431.25 263.11h-375v-232.69c22.988-6.0117 44.156-17.547 61.664-33.609 21.75-20.227 36.633-47.086 44.461-80.016l147.73 43.477c34.895 10.41 65.512 31.766 87.328 60.918 21.816 29.156 33.676 64.555 33.82 100.96z"/>
 <path d="m506.25 450v-18.75c0-6.6992-3.5742-12.887-9.375-16.238-5.8008-3.3477-12.949-3.3477-18.75 0-5.8008 3.3516-9.375 9.5391-9.375 16.238v18.75c0 6.6992 3.5742 12.887 9.375 16.238 5.8008 3.3477 12.949 3.3477 18.75 0 5.8008-3.3516 9.375-9.5391 9.375-16.238z"/>
 <path d="m712.5 412.5c-4.9727 0-9.7422 1.9766-13.258 5.4922-3.5156 3.5156-5.4922 8.2852-5.4922 13.258v18.75c0 6.6992 3.5742 12.887 9.375 16.238 5.8008 3.3477 12.949 3.3477 18.75 0 5.8008-3.3516 9.375-9.5391 9.375-16.238v-18.75c0-4.9727-1.9766-9.7422-5.4922-13.258-3.5156-3.5156-8.2852-5.4922-13.258-5.4922z"/>
 <path d="m525 393.75c6.6992 0 12.887-3.5742 16.238-9.375 3.3477-5.8008 3.3477-12.949 0-18.75-3.3516-5.8008-9.5391-9.375-16.238-9.375h-56.25c-6.6992 0-12.887 3.5742-16.238 9.375-3.3477 5.8008-3.3477 12.949 0 18.75 3.3516 5.8008 9.5391 9.375 16.238 9.375z"/>
 <path d="m675 393.75h56.25c6.6992 0 12.887-3.5742 16.238-9.375 3.3477-5.8008 3.3477-12.949 0-18.75-3.3516-5.8008-9.5391-9.375-16.238-9.375h-56.25c-6.6992 0-12.887 3.5742-16.238 9.375-3.3477 5.8008-3.3477 12.949 0 18.75 3.3516 5.8008 9.5391 9.375 16.238 9.375z"/>
 <path d="m675 543.75h-150c-4.9727 0-9.7422 1.9766-13.258 5.4922-3.5156 3.5156-5.4922 8.2852-5.4922 13.258 0 33.492 17.867 64.441 46.875 81.191 29.008 16.746 64.742 16.746 93.75 0 29.008-16.75 46.875-47.699 46.875-81.191 0-4.9727-1.9766-9.7422-5.4922-13.258-3.5156-3.5156-8.2852-5.4922-13.258-5.4922zm-75 75c-11.629-0.011719-22.969-3.625-32.465-10.34s-16.684-16.199-20.57-27.16h106.07-0.003906c-3.8867 10.961-11.074 20.445-20.57 27.16s-20.836 10.328-32.465 10.34z"/>
 <path d="m918.75 1031.2h-150c-4.9727 0-9.7422 1.9766-13.258 5.4922-3.5156 3.5156-5.4922 8.2852-5.4922 13.258v56.25c0 4.9727 1.9766 9.7422 5.4922 13.258 3.5156 3.5156 8.2852 5.4922 13.258 5.4922h150c4.9727 0 9.7422-1.9766 13.258-5.4922 3.5156-3.5156 5.4922-8.2852 5.4922-13.258v-56.25c0-4.9727-1.9766-9.7422-5.4922-13.258-3.5156-3.5156-8.2852-5.4922-13.258-5.4922zm-18.75 56.25h-112.5v-18.75h112.5z"/>
</svg>
