<?xml version="1.0" encoding="UTF-8" standalone="no"?>
<!DOCTYPE svg PUBLIC "-//W3C//DTD SVG 1.1//EN" "http://www.w3.org/Graphics/SVG/1.1/DTD/svg11.dtd">
<svg width="100%" height="100%" viewBox="0 0 1200 1200" version="1.1" xmlns="http://www.w3.org/2000/svg" xmlns:xlink="http://www.w3.org/1999/xlink" xml:space="preserve" xmlns:serif="http://www.serif.com/" style="fill-rule:evenodd;clip-rule:evenodd;stroke-linejoin:round;stroke-miterlimit:2;">
    <g transform="matrix(1,0,0,1,131,0)">
        <path d="M896.39,897.98C869.777,862.234 832.23,836.148 789.44,823.683L650.67,782.855L634.358,758.339C631.495,754.054 626.995,751.136 621.913,750.277C620.866,750.097 619.807,750.011 618.749,750.019L618.749,721.542C650.854,699.183 677.554,669.929 696.901,635.921C716.249,601.917 727.749,564.019 730.569,524.991L740.624,524.991C758.022,524.971 774.702,518.053 787.007,505.749C799.312,493.444 806.23,476.765 806.249,459.366L806.249,440.616C806.225,424.843 800.53,409.604 790.206,397.678C779.878,385.756 765.608,377.944 749.999,375.67L749.999,281.24C749.999,206.646 720.366,135.11 667.624,82.36C614.878,29.618 543.344,-0.015 468.744,-0.015C394.144,-0.015 322.614,29.618 269.864,82.36C217.122,135.106 187.489,206.64 187.489,281.24L187.489,375.67C171.88,377.943 157.61,385.756 147.282,397.678C136.958,409.604 131.262,424.842 131.239,440.616L131.239,459.366C131.258,476.764 138.176,493.444 150.481,505.749C162.786,518.054 179.465,524.972 196.864,524.991L206.919,524.991C209.739,564.014 221.239,601.913 240.587,635.921C259.935,669.929 286.634,699.183 318.739,721.542L318.739,750.019C317.68,750.011 316.622,750.097 315.575,750.277C310.493,751.136 305.993,754.054 303.13,758.339L286.818,782.855L148.048,823.683C105.31,836.249 67.79,862.316 41.098,897.98C14.41,933.648 -0.015,976.996 -0.011,1021.54L-0.011,1181.24C-0.011,1186.21 1.965,1190.98 5.481,1194.5C8.997,1198.01 13.766,1199.99 18.739,1199.99L918.739,1199.99C923.712,1199.99 928.481,1198.01 931.997,1194.5C935.513,1190.98 937.489,1186.21 937.489,1181.24L937.489,1021.54C937.595,976.978 923.161,933.595 896.38,897.98L896.39,897.98ZM731.25,412.5L740.625,412.5C748.082,412.508 755.23,415.473 760.504,420.746C765.777,426.02 768.742,433.168 768.75,440.625L768.75,459.375C768.742,466.832 765.777,473.98 760.504,479.254C755.231,484.528 748.082,487.492 740.625,487.5L731.25,487.5L731.25,412.5ZM206.25,487.5L196.875,487.5C189.418,487.492 182.27,484.527 176.996,479.254C171.723,473.981 168.758,466.832 168.75,459.375L168.75,440.625C168.758,433.168 171.723,426.02 176.996,420.746C182.269,415.472 189.418,412.508 196.875,412.5L206.25,412.5L206.25,487.5ZM37.5,1162.5L37.5,1021.55C37.645,985.14 49.504,949.741 71.32,920.59C93.136,891.438 123.754,870.082 158.648,859.672L262.688,829.039L280.243,1162.51L37.5,1162.5ZM632.88,823.76L558.372,913.174L502.31,879.518L614.13,795.635L632.88,823.76ZM584.06,771.33L468.75,857.814L353.44,771.33C355.303,765.205 356.252,758.842 356.252,752.439L356.252,743.392C391.404,760.087 429.834,768.751 468.752,768.751C507.67,768.751 546.1,760.087 581.252,743.392L581.252,752.439C581.252,758.841 582.202,765.205 584.065,771.33L584.06,771.33ZM508.591,927.03L522.653,986.139L468.747,1026.57L414.841,986.139L428.903,927.03L468.747,903.124L508.591,927.03ZM225.001,281.26C225.001,216.612 250.681,154.62 296.396,108.9C342.107,63.185 404.106,37.505 468.756,37.505C533.406,37.505 595.396,63.185 641.116,108.9C686.831,154.611 712.511,216.61 712.511,281.26L712.511,375.01C707.538,375.002 702.777,373.026 699.261,369.51C695.745,365.994 693.769,361.233 693.761,356.26C693.757,355.225 693.671,354.19 693.503,353.166L674.753,240.666C673.765,234.713 669.968,229.6 664.554,226.932C659.14,224.264 652.773,224.37 647.449,227.213C644.66,228.69 368.589,375.013 225.009,375.013L225.001,281.26ZM243.751,506.26L243.751,411.854C307.36,407.518 394.801,382.088 504.141,336.034C562.805,311.331 613.871,286.393 641.981,272.19L656.278,357.971C656.641,369.303 660.411,380.26 667.098,389.416C673.782,398.572 683.071,405.502 693.754,409.299L693.754,506.26C693.754,565.932 670.047,623.16 627.852,665.36C585.657,707.555 528.426,731.262 468.752,731.262C409.078,731.262 351.852,707.555 309.652,665.36C267.457,623.165 243.75,565.934 243.75,506.26L243.751,506.26ZM323.368,795.64L435.188,879.523L379.126,913.179L304.618,823.765L323.368,795.64ZM359.954,1162.51L317.79,1162.51L302.931,880.32L360.587,949.508C364.153,953.781 369.435,956.254 375.001,956.258C378.134,956.254 381.212,955.453 383.954,953.938L375.517,989.422C374.669,992.976 374.876,996.699 376.118,1000.13C377.356,1003.57 379.575,1006.57 382.501,1008.76L392.462,1016.23L359.954,1162.51ZM398.368,1162.51L425.391,1040.94L457.5,1065.01C460.746,1067.44 464.691,1068.76 468.75,1068.76C472.809,1068.76 476.754,1067.44 480,1065.01L512.109,1040.94L539.132,1162.51L398.368,1162.51ZM619.708,1162.51L577.544,1162.51L545.036,1016.24L554.997,1008.76C557.923,1006.57 560.141,1003.58 561.38,1000.14C562.622,996.705 562.829,992.982 561.981,989.427L553.544,953.943C556.286,955.459 559.364,956.26 562.497,956.264C568.063,956.26 573.345,953.787 576.911,949.514L634.567,880.326L619.708,1162.51ZM899.998,1162.51L657.258,1162.51L674.813,829.04L778.853,859.673C813.748,870.083 844.365,891.439 866.181,920.591C887.997,949.747 899.857,985.146 900.001,1021.55L899.998,1162.51Z" style="fill-rule:nonzero;"/>
    </g>
    <g transform="matrix(1,0,0,1,131,0)">
        <path d="M375,431.25C375,424.551 371.426,418.363 365.625,415.012C359.824,411.664 352.676,411.664 346.875,415.012C341.074,418.364 337.5,424.551 337.5,431.25L337.5,450C337.5,456.699 341.074,462.887 346.875,466.238C352.676,469.586 359.824,469.586 365.625,466.238C371.426,462.886 375,456.699 375,450L375,431.25Z" style="fill-rule:nonzero;"/>
    </g>
    <g transform="matrix(1,0,0,1,131,0)">
        <path d="M581.25,412.5C576.277,412.5 571.508,414.477 567.992,417.992C564.476,421.508 562.5,426.277 562.5,431.25L562.5,450C562.5,456.699 566.074,462.887 571.875,466.238C577.676,469.586 584.824,469.586 590.625,466.238C596.426,462.887 600,456.699 600,450L600,431.25C600,426.278 598.023,421.508 594.508,417.992C590.992,414.477 586.222,412.5 581.25,412.5L581.25,412.5Z" style="fill-rule:nonzero;"/>
    </g>
    <g transform="matrix(1,0,0,1,131,0)">
        <path d="M543.75,375L600,375C606.699,375 612.887,371.426 616.238,365.625C619.586,359.824 619.586,352.676 616.238,346.875C612.886,341.074 606.699,337.5 600,337.5L543.75,337.5C537.051,337.5 530.863,341.074 527.512,346.875C524.164,352.676 524.164,359.824 527.512,365.625C530.864,371.426 537.051,375 543.75,375Z" style="fill-rule:nonzero;"/>
    </g>
    <g transform="matrix(1,0,0,1,131,0)">
        <path d="M562.5,562.5C562.5,557.527 560.523,552.758 557.008,549.242C553.492,545.726 548.723,543.75 543.75,543.75L393.75,543.75C388.777,543.75 384.008,545.726 380.492,549.242C376.976,552.758 375,557.527 375,562.5C375,595.992 392.867,626.941 421.875,643.691C450.883,660.437 486.617,660.437 515.625,643.691C544.633,626.941 562.5,595.992 562.5,562.5L562.5,562.5ZM415.705,581.25L521.78,581.25L521.776,581.25C516.577,595.969 505.495,607.863 491.182,614.09C476.87,620.317 460.612,620.317 446.299,614.09C431.987,607.863 420.904,595.969 415.705,581.25Z" style="fill-rule:nonzero;"/>
    </g>
</svg>
