<?xml version="1.0" encoding="UTF-8"?>
<svg width="1200pt" height="1200pt" version="1.1" viewBox="0 0 1200 1200" xmlns="http://www.w3.org/2000/svg">
 <path d="m954.84 257.15-296.42-146.36c-37.891-18.641-84.09-3.1172-102.88 34.883l-342.71 694.24c-18.73 37.977-3.0977 84.113 34.859 102.86l296.46 146.34h0.019531c10.727 5.3203 22.281 7.9805 33.902 7.9805 8.3047 0 16.637-1.3516 24.746-4.0977 19.402-6.582 35.102-20.363 44.172-38.762l342.73-694.2c9.1133-18.402 10.465-39.242 3.8828-58.668-6.5859-19.434-20.367-35.129-38.766-44.219zm-238.9-78.117 156.34 77.195-29.98 26.848-129.42-63.883zm241.78 165.17-342.73 694.25c-4.8828 9.8555-13.258 17.18-23.656 20.711-10.398 3.6172-21.543 2.832-31.375-2.0469h0.019531l-296.46-146.34c-20.297-10.027-28.668-34.754-18.641-55.07l342.71-694.21c10.074-20.32 34.773-28.648 55.051-18.664l38.801 19.156-5.0938 66.48c-0.56641 7.2812 3.3594 14.148 9.8984 17.398l151.09 74.586c2.4844 1.2227 5.1875 1.832 7.8906 1.832 4.3164 0 8.5898-1.5469 11.902-4.5547l49.645-44.48 32.285 15.941c9.8555 4.8594 17.223 13.258 20.711 23.633 3.5391 10.402 2.8008 21.539-2.0391 31.375z"/>
 <path d="m462.96 912.47c-3.5547-7.0195-11.316-10.77-19.098-9.4609l-38.176 6.9766c-9.6992 1.7891-16.133 11.078-14.367 20.797 1.7656 9.6797 11.141 15.828 20.777 14.348l25.117-4.5781 11.641 22.719c3.1602 6.1914 9.418 9.7656 15.918 9.7656 2.7266 0 5.5156-0.65234 8.1094-1.9609 8.7852-4.4922 12.254-15.262 7.7617-24.027z"/>
 <path d="m1007.2 146.95 35.48 0.074219h0.042969c9.8555 0 17.832-7.957 17.879-17.812 0-9.875-7.9805-17.879-17.832-17.898l-80.492-0.17188h-0.042969c-0.42969 0-0.78906 0.21484-1.2109 0.24219-1.2109 0.085938-2.3359 0.38281-3.5078 0.70703-1.1094 0.30859-2.1836 0.58984-3.1914 1.0938-0.95703 0.47266-1.7695 1.1211-2.6406 1.7734-1.0234 0.76953-1.9883 1.5312-2.8242 2.5-0.26562 0.30859-0.64062 0.45703-0.88672 0.78906-0.41797 0.55469-0.51953 1.2109-0.85938 1.7969-0.64844 1.0859-1.2148 2.1641-1.625 3.3867-0.36719 1.1172-0.54687 2.207-0.6875 3.3594-0.097656 0.74219-0.44141 1.3945-0.44531 2.1641l-0.17188 78.355c0 9.875 7.9805 17.879 17.832 17.898h0.042969c9.8555 0 17.832-7.957 17.879-17.812l0.082031-38.027c48.473 50.23 131.33 168.29 24.945 314.87-5.7969 7.9805-4.0547 19.141 3.9219 24.941 3.1836 2.2891 6.8477 3.4023 10.508 3.4023 5.4922 0 10.945-2.5508 14.434-7.3672 119.02-163.95 28.422-299.11-26.629-358.27z"/>
 <path d="m266.29 1075.4c0.042969-0.67969 0.33203-1.2852 0.30078-1.9766l-3.8164-78.27c-0.48047-9.8555-8.7852-17.094-18.707-16.961-9.8555 0.48047-17.441 8.8516-16.961 18.707l1.8594 38.156c-51.043-47.504-140.13-161.02-40.949-313.39 5.3633-8.2422 3.0312-19.316-5.2344-24.68-8.2656-5.4062-19.316-3.0508-24.723 5.2344-110.53 169.78-13.152 300.16 44.848 356.44l-35.43 1.7266c-9.8555 0.48047-17.441 8.8516-16.961 18.707 0.45703 9.5469 8.3516 17.008 17.812 17.008 0.30469 0 0.58984-0.042969 0.89453-0.042969l80.406-3.9219c2.582-0.125 4.9727-0.83984 7.1328-1.9297 0.39062-0.19922 0.67188-0.55469 1.0508-0.78516 1.9453-1.1719 3.6016-2.6445 4.9688-4.4375 0.21875-0.28516 0.57031-0.39063 0.78125-0.69531 0.40234-0.59766 0.47266-1.2852 0.79688-1.9102 0.55469-1.0703 1.0469-2.1211 1.3789-3.3008 0.34375-1.2344 0.47656-2.4258 0.55078-3.6797z"/>
</svg>
